<?xml version="1.0" encoding="UTF-8" standalone="no"?>
<!-- Created with Inkscape (http://www.inkscape.org/) -->

<svg
   width="201.78719mm"
   height="201.78719mm"
   viewBox="0 0 201.78718 201.78718"
   version="1.1"
   id="svg5"
   inkscape:version="1.1.2 (08b2f3d93c, 2022-04-05)"
   sodipodi:docname="logo.svg"
   inkscape:export-filename="/home/pedro/Documents/deniksracu/public/asstes/splashscreeen.png"
   inkscape:export-xdpi="515.58002"
   inkscape:export-ydpi="515.58002"
   xmlns:inkscape="http://www.inkscape.org/namespaces/inkscape"
   xmlns:sodipodi="http://sodipodi.sourceforge.net/DTD/sodipodi-0.dtd"
   xmlns="http://www.w3.org/2000/svg"
   xmlns:svg="http://www.w3.org/2000/svg">
  <sodipodi:namedview
     id="namedview7"
     pagecolor="#ffffff"
     bordercolor="#999999"
     borderopacity="1"
     inkscape:pageshadow="0"
     inkscape:pageopacity="0"
     inkscape:pagecheckerboard="0"
     inkscape:document-units="mm"
     showgrid="false"
     inkscape:zoom="0.53165938"
     inkscape:cx="242.63655"
     inkscape:cy="536.0575"
     inkscape:window-width="1920"
     inkscape:window-height="1043"
     inkscape:window-x="1920"
     inkscape:window-y="0"
     inkscape:window-maximized="1"
     inkscape:current-layer="g41439"
     showguides="true"
     inkscape:guide-bbox="true" />
  <defs
     id="defs2" />
  <g
     inkscape:label="Layer 1"
     inkscape:groupmode="layer"
     id="layer1"
     transform="translate(-6.1605406,-48.3727)">
    <g
       id="g41439"
       transform="matrix(1.3239885,0,0,1.3239885,-23.166032,-46.743184)">
      <path
         id="path1344"
         style="fill:#fbbf24;fill-opacity:1;fill-rule:evenodd;stroke:#041833;stroke-width:11.5843;stroke-linecap:round;stroke-linejoin:round;stroke-miterlimit:4;stroke-dasharray:none;stroke-opacity:1"
         d="m 374.66602,282.53906 c -110.81426,-2.4e-4 -200.64697,87.31144 -200.64649,195.01563 1.00129,57.50992 28.60475,116.9158 51.05781,161.27857 109.17896,189.86238 161.44781,195.58985 161.44781,195.58985 0,0 54.37783,-11.0582 135.82329,-186.729 C 548.22101,591.27434 574.85216,535.8359 575.3125,477.55469 575.31298,369.8505 485.48028,282.53882 374.66602,282.53906 Z"
         transform="scale(0.26458333)"
         sodipodi:nodetypes="ccccccc" />
      <path
         id="path1344-4"
         style="fill:#000000;fill-opacity:0.137072;fill-rule:evenodd;stroke:none;stroke-width:3.22725;stroke-linecap:round;stroke-linejoin:round;stroke-miterlimit:4;stroke-dasharray:none;stroke-opacity:0.19"
         d="M 102.26811,74.755125 V 220.77445 c 0,0 -15.941129,-2.92755 -39.816858,-49.43651 C 54.866719,156.40077 47.060127,141.7236 46.925188,126.29361 46.925046,98.803585 71.401645,76.334716 102.26811,74.755125 Z" />
      <g
         id="g28442"
         transform="matrix(0.86764354,0,0,0.85262093,-77.323681,-83.27236)">
        <path
           style="fill:#e5e7eb;fill-opacity:1;stroke:#000000;stroke-width:3.41952;stroke-linecap:round;stroke-linejoin:round;stroke-miterlimit:4;stroke-dasharray:none;stroke-opacity:1"
           d="m 192.63659,277.74923 -13.60042,0.0639 0.14396,15.5726 h 13.91891 z"
           id="path17882" />
        <path
           style="fill:none;stroke:#000000;stroke-width:2.865;stroke-linecap:round;stroke-linejoin:round;stroke-miterlimit:4;stroke-dasharray:none;stroke-opacity:1"
           d="m 188.23332,219.14209 -0.0276,-4.41478"
           id="path17814" />
        <path
           style="fill:#ffffff;fill-opacity:1;stroke:#000000;stroke-width:2.865;stroke-linecap:round;stroke-linejoin:round;stroke-miterlimit:4;stroke-dasharray:none;stroke-opacity:1"
           d="m 175.05584,218.87187 25.6874,0.19827 0.15758,39.77466 38.72159,0.0605 c 0,0 1.07762,11.73061 -3.60507,17.72961 -3.05379,3.91222 -6.70975,4.45512 -10.8247,8.70541 -4.49343,4.64121 -3.12314,16.19007 -3.12314,16.19007 l -35.8953,0.37047 c 0,0 2.37181,-27.37834 -1.84508,-32.34831 -4.21689,-4.96996 -5.6912,-3.71884 -7.57526,-8.50322 -1.88407,-4.78438 -1.69802,-42.17746 -1.69802,-42.17746 z"
           id="path15512"
           sodipodi:nodetypes="ccccsscczzc" />
        <path
           style="fill:#dc2626;fill-opacity:1;stroke:#000000;stroke-width:2.3;stroke-linecap:butt;stroke-linejoin:round;stroke-miterlimit:4;stroke-dasharray:none;stroke-opacity:1"
           d="m 201.00112,251.19373 41.93449,-0.0523 -0.0336,7.71825 -42.00122,-0.0149 z"
           id="path17504"
           sodipodi:nodetypes="ccccc" />
      </g>
    </g>
  </g>
</svg>
