<?xml version="1.0" encoding="UTF-8" standalone="no"?>
<!-- Created with Inkscape (http://www.inkscape.org/) -->

<svg
   width="201.78719mm"
   height="201.78719mm"
   viewBox="0 0 201.78718 201.78718"
   version="1.1"
   id="svg5"
   inkscape:version="1.1.2 (08b2f3d93c, 2022-04-05)"
   sodipodi:docname="splashscreen.svg"
   inkscape:export-filename="/home/pedro/Documents/deniksracu/public/asstes/splashscreeen.png"
   inkscape:export-xdpi="515.58002"
   inkscape:export-ydpi="515.58002"
   xmlns:inkscape="http://www.inkscape.org/namespaces/inkscape"
   xmlns:sodipodi="http://sodipodi.sourceforge.net/DTD/sodipodi-0.dtd"
   xmlns="http://www.w3.org/2000/svg"
   xmlns:svg="http://www.w3.org/2000/svg">
  <sodipodi:namedview
     id="namedview7"
     pagecolor="#ffffff"
     bordercolor="#999999"
     borderopacity="1"
     inkscape:pageshadow="0"
     inkscape:pageopacity="0"
     inkscape:pagecheckerboard="0"
     inkscape:document-units="mm"
     showgrid="false"
     inkscape:zoom="0.53165938"
     inkscape:cx="112.85421"
     inkscape:cy="455.17865"
     inkscape:window-width="1920"
     inkscape:window-height="1043"
     inkscape:window-x="1920"
     inkscape:window-y="0"
     inkscape:window-maximized="1"
     inkscape:current-layer="g41439"
     showguides="true"
     inkscape:guide-bbox="true" />
  <defs
     id="defs2" />
  <g
     inkscape:label="Layer 1"
     inkscape:groupmode="layer"
     id="layer1"
     transform="translate(-6.1605406,-48.3727)">
    <g
       id="g41439"
       transform="matrix(1.3239885,0,0,1.3239885,-23.166032,-46.743184)">
      <path
         id="path1344"
         style="fill:#fbbf24;fill-opacity:1;fill-rule:evenodd;stroke:#041833;stroke-width:0.815653;stroke-linecap:round;stroke-linejoin:round;stroke-miterlimit:4;stroke-dasharray:none;stroke-opacity:1"
         d="m 98.354458,128.6156 c -7.802444,-2e-5 -14.127571,6.14761 -14.127539,13.73107 0.0705,4.04928 2.014066,8.23205 3.594989,11.35563 7.6873,13.36822 11.36755,13.7715 11.36755,13.7715 0,0 3.828742,-0.77861 9.563332,-13.1476 1.82169,-3.97253 3.69679,-7.87595 3.7292,-11.97953 3e-5,-7.58346 -6.3251,-13.73109 -14.127532,-13.73107 z"
         sodipodi:nodetypes="ccccccc" />
      <path
         id="path1344-4"
         style="fill:#000000;fill-opacity:0.137072;fill-rule:evenodd;stroke:none;stroke-width:0.858826;stroke-linecap:round;stroke-linejoin:round;stroke-miterlimit:4;stroke-dasharray:none;stroke-opacity:0.19"
         d="m 105.71829,128.6156 v 38.8582 c 0,0 -4.2422,-0.77907 -10.595929,-13.15589 -2.01837,-3.97503 -4.095839,-7.88087 -4.131745,-11.98705 -3.8e-5,-7.31556 6.513595,-13.29491 14.727674,-13.71526 z" />
      <g
         id="g28442"
         transform="matrix(0.23089454,0,0,0.22689677,50.131681,89.434066)">
        <path
           style="fill:#e5e7eb;fill-opacity:1;stroke:#000000;stroke-width:3.41952;stroke-linecap:round;stroke-linejoin:round;stroke-miterlimit:4;stroke-dasharray:none;stroke-opacity:1"
           d="m 192.63659,277.74923 -13.60042,0.0639 0.14396,15.5726 h 13.91891 z"
           id="path17882" />
        <path
           style="fill:none;stroke:#000000;stroke-width:2.865;stroke-linecap:round;stroke-linejoin:round;stroke-miterlimit:4;stroke-dasharray:none;stroke-opacity:1"
           d="m 188.23332,219.14209 -0.0276,-4.41478"
           id="path17814" />
        <path
           style="fill:#ffffff;fill-opacity:1;stroke:#000000;stroke-width:2.865;stroke-linecap:round;stroke-linejoin:round;stroke-miterlimit:4;stroke-dasharray:none;stroke-opacity:1"
           d="m 175.05584,218.87187 25.6874,0.19827 0.15758,39.77466 38.72159,0.0605 c 0,0 1.07762,11.73061 -3.60507,17.72961 -3.05379,3.91222 -6.70975,4.45512 -10.8247,8.70541 -4.49343,4.64121 -3.12314,16.19007 -3.12314,16.19007 l -35.8953,0.37047 c 0,0 2.37181,-27.37834 -1.84508,-32.34831 -4.21689,-4.96996 -5.6912,-3.71884 -7.57526,-8.50322 -1.88407,-4.78438 -1.69802,-42.17746 -1.69802,-42.17746 z"
           id="path15512"
           sodipodi:nodetypes="ccccsscczzc" />
        <path
           style="fill:#dc2626;fill-opacity:1;stroke:#000000;stroke-width:2.3;stroke-linecap:butt;stroke-linejoin:round;stroke-miterlimit:4;stroke-dasharray:none;stroke-opacity:1"
           d="m 201.00112,251.19373 41.93449,-0.0523 -0.0336,7.71825 -42.00122,-0.0149 z"
           id="path17504"
           sodipodi:nodetypes="ccccc" />
      </g>
    </g>
  </g>
</svg>
