<?xml version="1.0" standalone="no"?>
<!DOCTYPE svg PUBLIC "-//W3C//DTD SVG 20010904//EN"
 "http://www.w3.org/TR/2001/REC-SVG-20010904/DTD/svg10.dtd">
<svg version="1.0" xmlns="http://www.w3.org/2000/svg"
 width="2362.000000pt" height="2362.000000pt" viewBox="0 0 2362.000000 2362.000000"
 preserveAspectRatio="xMidYMid meet">
<metadata>
Created by potrace 1.14, written by Peter Selinger 2001-2017
</metadata>
<g transform="translate(0.000000,2362.000000) scale(0.100000,-0.100000)"
fill="#000000" stroke="none">
<path d="M11440 23614 c-974 -40 -1847 -170 -2710 -405 -1820 -495 -3474
-1400 -4865 -2662 -175 -159 -584 -567 -754 -752 -1753 -1911 -2827 -4338
-3060 -6920 -37 -403 -45 -595 -45 -1065 0 -470 8 -662 45 -1065 170 -1885
785 -3683 1807 -5290 609 -958 1399 -1867 2267 -2610 1286 -1102 2807 -1921
4430 -2385 1390 -398 2832 -538 4265 -414 2583 222 5012 1283 6935 3027 169
153 532 513 703 697 1088 1168 1939 2572 2479 4090 331 931 543 1898 632 2885
36 396 45 614 45 1065 0 665 -36 1156 -134 1800 -265 1736 -940 3439 -1943
4895 -1690 2455 -4251 4183 -7157 4830 -626 139 -1218 222 -1900 265 -160 10
-890 20 -1040 14z m-1155 -5584 c1100 -39 1856 -123 2840 -315 508 -99 608
-125 1145 -290 441 -135 530 -162 847 -251 557 -156 782 -233 1138 -390 651
-286 884 -368 1185 -420 120 -20 184 -45 362 -138 101 -53 209 -98 369 -154
281 -99 379 -142 689 -298 283 -142 518 -280 686 -403 l119 -86 3 -54 c4 -69
-25 -219 -88 -454 -55 -207 -80 -317 -146 -661 -112 -585 -157 -920 -174
-1316 -10 -227 -27 -371 -116 -985 -133 -923 -164 -1177 -199 -1635 -20 -263
-43 -363 -161 -715 -106 -314 -149 -475 -193 -715 -73 -407 -85 -524 -106
-1050 -26 -660 -43 -782 -156 -1130 -128 -393 -170 -577 -149 -650 5 -19 8
-35 7 -37 -2 -1 -46 27 -99 62 -53 35 -228 144 -390 241 -327 197 -443 273
-633 414 -250 186 -379 262 -540 321 -49 18 -177 68 -283 111 -226 92 -364
140 -476 169 -93 24 -357 109 -463 149 l-71 27 -6 -30 c-3 -16 -6 -92 -6 -168
0 -159 -10 -220 -52 -306 -295 -608 -2017 -1113 -4273 -1253 -808 -50 -1871
-52 -2645 -5 -1735 106 -3146 431 -3831 884 -197 130 -341 291 -388 433 -19
60 -21 98 -31 728 -5 366 -18 944 -27 1285 -21 754 -23 2331 -5 3460 15 973
32 2372 40 3431 l7 821 44 89 c103 208 384 417 796 592 915 390 2455 646 4180
695 254 8 1013 6 1250 -3z"/>
<path d="M9245 17170 c-500 -21 -824 -80 -1184 -215 -212 -79 -317 -138 -390
-221 -105 -120 -85 -267 51 -375 62 -48 256 -144 380 -188 484 -169 1244 -230
2138 -172 589 37 735 68 1035 218 226 114 299 168 341 258 70 148 -7 292 -216
399 -149 77 -325 128 -670 195 -451 87 -975 123 -1485 101z"/>
</g>
</svg>
