<?xml version="1.0" standalone="no"?>
<!DOCTYPE svg PUBLIC "-//W3C//DTD SVG 20010904//EN"
 "http://www.w3.org/TR/2001/REC-SVG-20010904/DTD/svg10.dtd">
<svg version="1.0" xmlns="http://www.w3.org/2000/svg"
 width="1000.000000pt" height="1000.000000pt" viewBox="0 0 1000.000000 1000.000000"
 preserveAspectRatio="xMidYMid meet">
<metadata>
Created by potrace 1.14, written by Peter Selinger 2001-2017
</metadata>
<g transform="translate(0.000000,1000.000000) scale(0.100000,-0.100000)"
fill="#000000" stroke="none">
<path d="M4787 9900 c-836 -66 -1572 -381 -2193 -941 -318 -286 -591 -653
-785 -1054 -297 -614 -400 -1273 -303 -1945 113 -789 524 -1832 1096 -2785
660 -1098 1211 -1859 1738 -2398 322 -330 588 -535 802 -617 105 -41 136 -39
246 15 505 245 1117 991 1756 2140 225 404 607 1193 887 1831 335 765 501
1300 576 1854 28 210 25 702 -5 900 -118 760 -449 1418 -982 1950 -582 583
-1319 936 -2155 1035 -156 19 -528 27 -678 15z m603 -211 c766 -69 1502 -409
2054 -948 526 -515 843 -1134 957 -1871 31 -195 33 -643 5 -845 -73 -536 -237
-1061 -559 -1795 -659 -1502 -1214 -2493 -1797 -3210 -126 -154 -412 -439
-531 -527 -109 -82 -233 -153 -267 -153 -29 0 -142 56 -231 114 -491 320
-1134 1079 -1833 2161 -343 532 -616 997 -769 1310 -419 860 -636 1500 -721
2124 -28 209 -30 575 -4 766 84 617 312 1154 691 1628 710 886 1832 1352 3005
1246z"/>
<path d="M4150 8237 c-38 -19 -50 -54 -50 -146 l0 -83 -342 3 c-377 4 -378 4
-398 -55 -13 -39 3 -1326 20 -1686 36 -734 64 -829 311 -1027 144 -116 223
-202 249 -270 23 -63 57 -220 48 -228 -3 -3 -86 -9 -184 -12 -175 -5 -180 -6
-206 -31 l-28 -26 0 -456 c0 -300 4 -468 11 -488 20 -57 38 -62 245 -62 l187
0 -6 -102 c-4 -57 -9 -148 -13 -203 -6 -93 -5 -102 16 -127 l21 -28 372 0
c673 1 1735 18 1756 30 31 16 35 45 32 235 -4 270 20 424 90 571 51 108 130
181 354 329 94 61 196 134 227 161 217 186 323 474 335 907 l6 187 63 0 c56 0
65 3 83 26 20 25 21 39 21 258 0 193 -3 235 -16 254 l-15 22 -1175 0 -1174 0
0 864 c0 559 -4 873 -10 892 -20 58 -25 59 -382 62 l-328 4 0 93 c0 92 0 94
-31 119 -34 29 -52 32 -89 13z m412 -394 l255 -6 7 -1081 c7 -1021 8 -1082 25
-1106 l18 -25 644 -6 c354 -3 843 -7 1087 -8 l442 -1 0 -89 c0 -272 -62 -558
-154 -709 -51 -84 -146 -174 -266 -252 -289 -189 -416 -299 -477 -415 -76
-146 -115 -339 -117 -586 l-1 -167 -310 -6 c-170 -3 -591 -9 -934 -12 l-624
-6 6 58 c17 163 29 588 24 854 -8 418 -39 639 -108 786 -36 77 -133 182 -263
286 -125 100 -140 116 -182 203 -26 55 -37 94 -48 185 -35 272 -53 717 -62
1530 l-7 580 395 0 c217 0 510 -3 650 -7z m-539 -3455 c9 -192 9 -354 1 -451
l-7 -77 -123 0 -124 0 0 279 c0 153 -3 306 -6 340 l-7 61 130 0 130 0 6 -152z"/>
</g>
</svg>
