<?xml version="1.0" encoding="UTF-8" standalone="no"?>
<!-- Created with Inkscape (http://www.inkscape.org/) -->

<svg
   width="12.699914mm"
   height="22.225266mm"
   viewBox="0 0 12.699914 22.225266"
   version="1.1"
   id="svg5"
   xml:space="preserve"
   inkscape:version="1.2.1 (0f2f062aeb, 2022-09-21, custom)"
   sodipodi:docname="marker-toilet-48x84-transparent-shadows.svg"
   inkscape:export-filename="../5c680011/marker-toilet-48x84-transparent-shadows.png"
   inkscape:export-xdpi="96.000641"
   inkscape:export-ydpi="96.000641"
   xmlns:inkscape="http://www.inkscape.org/namespaces/inkscape"
   xmlns:sodipodi="http://sodipodi.sourceforge.net/DTD/sodipodi-0.dtd"
   xmlns="http://www.w3.org/2000/svg"
   xmlns:svg="http://www.w3.org/2000/svg"><sodipodi:namedview
     id="namedview7"
     pagecolor="#ffffff"
     bordercolor="#999999"
     borderopacity="1"
     inkscape:showpageshadow="0"
     inkscape:pageopacity="0"
     inkscape:pagecheckerboard="0"
     inkscape:deskcolor="#d1d1d1"
     inkscape:document-units="mm"
     showgrid="false"
     inkscape:zoom="7.9421345"
     inkscape:cx="21.404825"
     inkscape:cy="43.879891"
     inkscape:window-width="1920"
     inkscape:window-height="1016"
     inkscape:window-x="0"
     inkscape:window-y="0"
     inkscape:window-maximized="1"
     inkscape:current-layer="layer1" /><defs
     id="defs2" /><g
     inkscape:label="Layer 1"
     inkscape:groupmode="layer"
     id="layer1"
     transform="translate(-66.330593,-88.057049)"><g
       id="g197"
       transform="translate(-26.061086,2.5935378)" /><g
       id="g1521"
       transform="matrix(0.13912949,0,0,0.13976873,59.090556,85.222831)"
       style="fill:#000000;fill-opacity:0.30000001;stroke:none;stroke-opacity:0"><g
         id="g1012"
         transform="translate(42.655305,-7.1406225)"
         style="fill:#000000;fill-opacity:0.30000001;stroke:none;stroke-opacity:0"><path
           style="fill:#000000;fill-opacity:0.30000001;stroke:none;stroke-width:0.264583;stroke-opacity:0"
           d="m 38.09011,178.36332 v -2.64583 h 2.645834 2.645833 v -3.175 -3.175 h 5.820834 5.820833 v 3.175 3.175 h -2.645833 -2.645834 v 2.64583 2.64584 H 43.910944 38.09011 Z m 0,-37.04166 v -5.82084 h -3.175 -3.175 v -2.64583 -2.64583 h 8.995834 8.995833 v 5.29166 5.29167 h -3.175 -3.175 v 3.175 3.175 H 40.735944 38.09011 Z m 0,-31.22083 v -3.175 h 16.933334 16.933334 v -2.64584 -2.64583 h 5.820834 5.820833 v 2.64583 2.64584 h -5.820833 -5.820834 v 3.175 3.17499 H 55.023444 38.09011 Z M 26.448443,89.992492 V 84.700825 H 23.80261 21.156776 v -5.820833 -5.820834 h 2.645834 2.645833 v -2.645833 -2.645833 h 2.645833 2.645834 v -3.175 -3.175 h 3.175 3.175 v -2.645834 -2.645833 h 16.933334 16.933334 v 2.645833 2.645834 h 5.820834 5.820833 v 3.175 3.175 h 2.645834 2.645833 v 8.466666 8.466667 h -2.645833 -2.645834 v 2.645833 2.645834 h -3.175 -3.175 v -2.645834 -2.645833 h 3.175 3.175 v -5.820833 -5.820834 h -3.175 -3.175 v -2.645833 -2.645833 h -2.645834 -2.645833 v -3.175 -3.175 H 55.023444 38.09011 v 3.175 3.175 h 14.287501 14.2875 v 2.645833 2.645833 h 2.645834 2.645833 v 5.820834 5.820833 h -5.820833 -5.820834 v 2.645833 2.645834 H 49.202611 38.09011 v 2.645833 2.645833 H 32.269277 26.448443 Z M 38.09011,87.346658 v -2.645833 h -3.175 -3.175 v -5.820833 -5.820834 h 3.175 3.175 v -2.645833 -2.645833 h -3.175 -3.175 v 2.645833 2.645833 h -2.645834 -2.645833 v 5.820834 5.820833 h 2.645833 2.645834 v 2.645833 2.645834 h 3.175 3.175 z"
           id="path1026" /><path
           style="fill:#000000;fill-opacity:0.30000001;stroke:none;stroke-width:0.264583;stroke-opacity:0"
           d="m 43.381777,146.61332 v -5.82083 h 3.175 3.175 v -5.29167 -5.29166 h 11.112501 11.1125 v 5.29166 5.29167 h -2.645833 -2.645834 v 3.175 3.175 h -3.175 -3.175 v 2.64583 2.64584 h -8.466667 -8.466667 z m 33.866668,-36.51249 v -3.175 h 5.820833 5.820834 v 3.175 3.17499 H 83.069278 77.248445 Z M 38.09011,92.638325 v -2.645833 h -3.175 -3.175 V 87.346658 84.700825 H 29.094276 26.448443 V 78.879992 73.059158 H 23.80261 21.156776 v -2.645833 -2.645833 h 2.645834 2.645833 v 2.645833 2.645833 h 2.645833 2.645834 v -2.645833 -2.645833 h 3.175 3.175 v -3.175 -3.175 h 16.933334 16.933334 v 3.175 3.175 h 2.645833 2.645834 v 2.645833 2.645833 h 3.175 3.175 v 5.820834 5.820833 h -3.175 -3.175 v 2.645833 2.645834 h -2.645834 -2.645833 v 2.645833 2.645833 H 55.023444 38.09011 Z m 33.866668,-5.291667 v -2.645833 h 2.645833 2.645834 V 78.879992 73.059158 H 74.602611 71.956778 V 70.413325 67.767492 H 55.023444 38.09011 v 2.645833 2.645833 h -3.175 -3.175 v 5.820834 5.820833 h 3.175 3.175 v 2.645833 2.645834 H 55.023444 71.956778 Z M 26.448443,41.838325 v -2.645833 h 28.575001 28.575001 v 2.645833 2.645833 H 55.023444 26.448443 Z"
           id="path1024" /><path
           style="fill:#000000;fill-opacity:0.30000001;stroke:none;stroke-width:0.264583;stroke-opacity:0"
           d="m 31.74011,178.36332 v -2.64583 h 3.175 3.175 v -3.175 -3.175 h 2.645834 2.645833 v 3.175 3.175 H 40.735944 38.09011 v 2.64583 2.64584 h -3.175 -3.175 z m 17.991667,0 v -2.64583 h 2.645834 2.645833 v -3.175 -3.175 h 5.820834 5.820833 v 3.175 3.175 h 2.645834 2.645833 v 2.64583 2.64584 h -11.1125 -11.112501 z m -6.35,-16.93333 v -2.64583 H 40.735944 38.09011 v -3.175 -3.175 h -3.175 -3.175 v -5.82084 -5.82083 h -2.645834 -2.645833 v -8.46667 -8.46666 h 2.645833 2.645834 v -2.64584 -2.64583 h -2.645834 -2.645833 v -2.64583 -2.64584 H 23.80261 21.156776 v -3.17499 -3.175 h 2.645834 2.645833 v -2.64584 -2.64583 h 5.820834 5.820833 v -3.175002 -3.175 h 16.933334 16.933334 v -2.645833 -2.645833 h -5.820833 -5.820834 v -2.645834 -2.645833 h 5.820834 5.820833 v -5.820833 -5.820834 h -2.645833 -2.645834 v -2.645833 -2.645833 h 2.645834 2.645833 v 2.645833 2.645833 h 2.645833 2.645834 v 5.820834 5.820833 h -2.645834 -2.645833 v 2.645833 2.645834 h 5.820834 5.820833 v -2.645834 -2.645833 h 2.645834 2.645833 v -8.466667 -8.466666 h 2.645833 2.645834 v 8.466666 8.466667 h -2.645834 -2.645833 v 2.645833 2.645834 h -2.645833 -2.645834 v 2.645833 2.645833 h -5.820833 -5.820834 v 3.175 3.175002 H 55.023444 38.09011 v 2.64583 2.64584 h -3.175 -3.175 v 3.175 3.17499 h 3.175 3.175 v 2.64584 2.64583 h 16.933334 16.933334 v -2.64583 -2.64584 h 5.820834 5.820833 v 2.64584 2.64583 h -3.175 -3.175 v 2.64583 2.64584 h 3.175 3.175 v 5.82083 5.82083 h -3.175 -3.175 v 5.82084 5.82083 h -2.645834 -2.645833 v 2.64583 2.64584 h -2.645833 -2.645834 v 3.175 3.175 h -8.466667 -8.466667 v 2.64583 2.64583 h -3.175 -3.175 z m 16.933334,-11.64167 v -2.64583 h 3.175 3.175 v -3.175 -3.175 h 2.645834 2.645833 v -5.29167 -5.29166 h 2.645833 2.645834 v -3.175 -3.175 H 54.494277 31.74011 v 5.82083 5.82083 h 3.175 3.175 v 5.82084 5.82083 h 2.645834 2.645833 v 2.64583 2.64584 h 8.466667 8.466667 z M 21.156776,87.346658 v -2.645833 h -3.175 -3.175 v -8.466667 -8.466666 h 3.175 3.175 v 8.466666 8.466667 h 2.645834 2.645833 v 2.645833 2.645834 H 23.80261 21.156776 Z m 5.291667,-22.754166 v -3.175 H 23.80261 21.156776 v -5.820834 -5.820833 h 8.466667 8.466667 v 3.175 3.175 h -5.820833 -5.820834 v 2.645833 2.645834 h 2.645833 2.645834 v 3.175 3.175 h -2.645834 -2.645833 z m 57.150002,-5.820834 v -2.645833 h -5.820833 -5.820834 v -3.175 -3.175 h 8.466667 8.466667 v 5.820833 5.820834 h -2.645833 -2.645834 z"
           id="path1022" /><path
           style="fill:#000000;fill-opacity:0.30000001;stroke:none;stroke-width:0.264583;stroke-opacity:0"
           d="m 26.448443,178.36332 v -2.64583 h 2.645833 2.645834 v 2.64583 2.64584 h -2.645834 -2.645833 z m 45.508335,0 v -2.64583 h 5.820834 5.820833 v 2.64583 2.64584 H 77.777612 71.956778 Z M 38.09011,161.42999 v -2.64583 h -3.175 -3.175 v -3.175 -3.175 h -2.645834 -2.645833 v -5.82084 -5.82083 H 23.80261 21.156776 v -11.1125 -11.1125 h 2.645834 2.645833 v 11.1125 11.1125 h 2.645833 2.645834 v 5.82083 5.82084 h 3.175 3.175 v 3.175 3.175 h 2.645834 2.645833 v 2.64583 2.64583 H 40.735944 38.09011 Z m 11.641667,0 v -2.64583 h 8.466667 8.466667 v -3.175 -3.175 h 2.645834 2.645833 v -2.64584 -2.64583 h 2.645833 2.645834 v -5.82083 -5.82084 h 3.175 3.175 v -8.46666 -8.46667 h 2.645834 2.645833 v 11.1125 11.1125 h -2.645833 -2.645834 v 5.82083 5.82084 h -3.175 -3.175 v 3.175 3.175 h -2.645834 -2.645833 v 2.64583 2.64583 H 60.844278 49.731777 Z M 31.74011,98.459158 v -3.175 h 3.175 3.175 v 3.175 3.175002 h -3.175 -3.175 z m 40.216668,0 v -3.175 h 2.645833 2.645834 v 3.175 3.175002 H 74.602611 71.956778 Z M 49.731777,36.017492 v -3.175 h 5.291667 5.291667 v 3.175 3.175 h -5.291667 -5.291667 z"
           id="path1020" /><path
           style="fill:#000000;fill-opacity:0.30000001;stroke:none;stroke-width:0.264583;stroke-opacity:0"
           d="m 21.156776,47.129992 v -2.645834 h 33.866668 33.866668 v 2.645834 2.645833 H 55.023444 21.156776 Z"
           id="path1018" /><path
           style="fill:#000000;fill-opacity:0.30000001;stroke:none;stroke-width:0.264583;stroke-opacity:0"
           d="m 66.665111,172.54249 v -3.175 H 55.023444 43.381777 v -2.64583 -2.64584 h 11.641667 11.641667 v 2.64584 2.64583 h 2.645834 2.645833 v 3.175 3.175 H 69.310945 66.665111 Z M 38.09011,115.92166 v -2.64584 h -3.175 -3.175 v -3.17499 -3.175 h 3.175 3.175 v -2.64584 -2.64583 h 16.933334 16.933334 v 2.64583 2.64584 h 2.645833 2.645834 v 3.175 3.17499 h -2.645834 -2.645833 v 2.64584 2.64583 H 55.023444 38.09011 Z m 33.866668,-5.82083 v -3.175 H 55.023444 38.09011 v 3.175 3.17499 H 55.023444 71.956778 Z M 21.156776,64.592492 v -3.175 h 2.645834 2.645833 v -2.645834 -2.645833 h 5.820834 5.820833 v -3.175 -3.175 h 16.933334 16.933334 v 3.175 3.175 h 5.820834 5.820833 v 2.645833 2.645834 h 2.645834 2.645833 v 3.175 3.175 h -2.645833 -2.645834 v -3.175 -3.175 H 77.777612 71.956778 V 58.771658 56.125825 H 55.023444 38.09011 v 2.645833 2.645834 h -5.820833 -5.820834 v 3.175 3.175 H 23.80261 21.156776 Z"
           id="path1016" /><path
           style="fill:#000000;fill-opacity:0.30000001;stroke:none;stroke-width:0.264583;stroke-opacity:0"
           d="m 21.156776,181.00916 v -5.29167 h 2.645834 2.645833 v -3.175 -3.175 h 5.820834 5.820833 v -2.64583 -2.64584 h -3.175 -3.175 v -2.64583 -2.64583 h -2.645834 -2.645833 v -3.175 -3.175 H 23.80261 21.156776 v -5.82084 -5.82083 h -3.175 -3.175 v -16.93333 -16.93333 h 3.175 3.175 v -2.64584 -2.64583 h 2.645834 2.645833 v -3.175002 -3.175 H 23.80261 21.156776 v -2.645833 -2.645833 h -3.175 -3.175 V 87.346658 84.700825 H 12.160943 9.5151091 v -8.466667 -8.466666 h 2.6458339 2.645833 V 56.125825 44.484158 h 3.175 3.175 v -2.645833 -2.645833 h 2.645834 2.645833 v -3.175 -3.175 H 38.09011 49.731777 v -2.645834 -2.645833 h 5.291667 5.291667 v 2.645833 2.645834 h 11.641667 11.641667 v 3.175 3.175 h 2.645834 2.645833 v 2.645833 2.645833 h 2.645833 2.645834 v 11.641667 11.641667 h 3.175 3.175001 v 8.466666 8.466667 h -3.175001 -3.175 v 2.645833 2.645834 h -2.645834 -2.645833 v 2.645833 2.645833 h -2.645833 -2.645834 v 3.175 3.175002 h 2.645834 2.645833 v 2.64583 2.64584 h 2.645833 2.645834 v 16.93333 16.93333 h -2.645834 -2.645833 v 5.82083 5.82084 h -2.645833 -2.645834 v 3.175 3.175 h -3.175 -3.175 v 2.64583 2.64583 h -2.645834 -2.645833 v 2.64584 2.64583 h 5.820834 5.820833 v 3.175 3.175 h 2.645834 2.645833 v 5.29167 5.29166 H 55.023444 21.156776 Z m 62.441669,-2.64584 v -2.64583 h -5.820833 -5.820834 v -3.175 -3.175 h -2.645833 -2.645834 v -2.64583 -2.64584 h 2.645834 2.645833 v -2.64583 -2.64583 h 2.645833 2.645834 v -3.175 -3.175 h 3.175 3.175 v -5.82084 -5.82083 h 2.645834 2.645833 v -11.1125 -11.1125 h -2.645833 -2.645834 v -2.64583 -2.64584 h 2.645834 2.645833 v -3.17499 -3.175 h -2.645833 -2.645834 v -2.64584 -2.64583 h -3.175 -3.175 v -3.175002 -3.175 h 3.175 3.175 v -2.645833 -2.645833 h 2.645834 2.645833 v -2.645834 -2.645833 h 2.645833 2.645834 V 76.234158 67.767492 H 91.535945 88.890112 V 56.125825 44.484158 H 86.244279 83.598445 V 41.838325 39.192492 H 71.956778 60.315111 v -3.175 -3.175 h -5.291667 -5.291667 v 3.175 3.175 H 38.09011 26.448443 v 2.645833 2.645833 H 23.80261 21.156776 v 11.641667 11.641667 h -3.175 -3.175 v 8.466666 8.466667 h 3.175 3.175 v 2.645833 2.645834 h 2.645834 2.645833 v 2.645833 2.645833 h 2.645833 2.645834 v 3.175 3.175002 h -2.645834 -2.645833 v 2.64583 2.64584 H 23.80261 21.156776 v 3.175 3.17499 h 2.645834 2.645833 v 2.64584 2.64583 H 23.80261 21.156776 v 11.1125 11.1125 h 2.645834 2.645833 v 5.82083 5.82084 h 2.645833 2.645834 v 3.175 3.175 h 3.175 3.175 v 2.64583 2.64583 h 2.645834 2.645833 v 2.64584 2.64583 H 40.735944 38.09011 v 3.175 3.175 h -5.820833 -5.820834 v 2.64583 2.64584 H 55.023444 83.598445 Z M 31.74011,127.03416 v -3.175 h -2.645834 -2.645833 v -2.64584 -2.64583 h 2.645833 2.645834 v 2.64583 2.64584 h 22.754167 22.754168 v -2.64584 -2.64583 h 3.175 3.175 v 2.64583 2.64584 h -3.175 -3.175 v 3.175 3.175 H 54.494277 31.74011 Z"
           id="path1014" /></g></g></g></svg>
