<?xml version="1.0" encoding="UTF-8" standalone="no"?>
<!-- Created with Inkscape (http://www.inkscape.org/) -->

<svg
   width="130.51614mm"
   height="130.51614mm"
   viewBox="0 0 130.51615 130.51614"
   version="1.1"
   id="svg5"
   xml:space="preserve"
   inkscape:version="1.2 (dc2aedaf03, 2022-05-15)"
   sodipodi:docname="marker-toilet-win.svg"
   inkscape:export-filename="marker-toilet-win-512x512.png"
   inkscape:export-xdpi="99.641312"
   inkscape:export-ydpi="99.641312"
   xmlns:inkscape="http://www.inkscape.org/namespaces/inkscape"
   xmlns:sodipodi="http://sodipodi.sourceforge.net/DTD/sodipodi-0.dtd"
   xmlns="http://www.w3.org/2000/svg"
   xmlns:svg="http://www.w3.org/2000/svg"><sodipodi:namedview
     id="namedview7"
     pagecolor="#ffffff"
     bordercolor="#000000"
     borderopacity="0.25"
     inkscape:showpageshadow="2"
     inkscape:pageopacity="0.0"
     inkscape:pagecheckerboard="0"
     inkscape:deskcolor="#d1d1d1"
     inkscape:document-units="mm"
     showgrid="false"
     inkscape:zoom="0.74564394"
     inkscape:cx="-297.72924"
     inkscape:cy="197.14503"
     inkscape:window-width="1920"
     inkscape:window-height="1017"
     inkscape:window-x="-8"
     inkscape:window-y="-8"
     inkscape:window-maximized="1"
     inkscape:current-layer="layer1" /><defs
     id="defs2" /><g
     inkscape:label="Layer 1"
     inkscape:groupmode="layer"
     id="layer1"
     transform="translate(-53.675598,-48.551895)"><g
       id="g598"
       transform="translate(12.174823,-3.9899431)"><g
         id="g312"
         transform="translate(125.45443,65.236303)"><path
           style="fill:#ffffff;stroke-width:4.40899"
           d="m -67.243576,46.669047 0.25091,17.814528 18.567254,20.07271 38.389054,3.763631 L -2.0072724,70.756295 30.610878,66.239937 30.861788,0.25090751 -6.0218165,2.0072699 -10.036358,46.167228 Z"
           id="path567" /><path
           style="fill:#fdfdfd;stroke-width:0.131679"
           d="m -36.345157,83.374707 c -2.36333,-0.217378 -5.6136,-0.868294 -6.8473,-1.371278 -0.3259,-0.132871 -1.15548,-0.459043 -1.8435,-0.724822 -2.54622,-0.983592 -6.09046,-3.053802 -8.10807,-4.735969 -2.43238,-2.027977 -4.64485,-4.487152 -6.26921,-6.968265 -3.15044,-4.812089 -4.7119,-9.65078 -5.02833,-15.581837 l -0.058,-1.086349 h 30.536673 30.5366755 l 0.03329,-22.8792 0.03329,-22.8791985 H 11.820678 27.001 L 26.9945,34.223499 c -0.0071,29.993119 0.06165,27.711717 -0.868657,28.798578 -0.251415,0.293723 -0.796314,0.70061 -1.210895,0.904187 l -0.753757,0.370143 -14.9784665,0.03563 c -11.098403,0.02643 -14.978466,0.0745 -14.978466,0.185671 0,0.08252 -0.350782,0.866427 -0.779502,1.742027 -1.534991,3.134961 -3.336791,5.646348 -5.8681095,8.179085 -2.70627,2.707813 -5.040413,4.369236 -8.429617,6.000151 -2.813371,1.353819 -5.590293,2.213026 -8.690803,2.689016 -1.28815,0.197759 -5.605914,0.354843 -6.781464,0.246716 z"
           id="path322" /><path
           style="fill:#e4e4e4;stroke-width:0.131679"
           d="m -49.113807,106.225 c 0.008,-0.33732 6.01467,-24.212259 6.07641,-24.150517 0.13707,0.137063 3.31063,0.859749 4.71706,1.074171 1.83975,0.280485 6.441403,0.317224 8.229929,0.06571 4.23192,-0.595116 8.686127,-2.18644 12.155411,-4.342685 3.773908,-2.345574 7.360407,-5.933859 9.8302275,-9.835113 0.753583,-1.190325 2.309108,-4.236284 2.309108,-4.521572 0,-0.114825 2.917687,-0.149797 11.752335,-0.140864 9.9765155,0.0101 11.6130595,0.03738 10.8305855,0.180739 -1.485904,0.272198 -2.737957,0.694443 -4.139007,1.395824 -3.6739075,1.83922 -6.4427065,5.002558 -7.7103915,8.809068 -0.740972,2.224955 -0.725932,1.867165 -0.725932,17.266622 v 14.209737 l -6.814381,5e-5 c -3.747907,2e-5 -15.7471415,0.0395 -26.6649635,0.0876 -17.073241,0.0753 -19.850001,0.0615 -19.846391,-0.0988 z m -6.47325,-31.822243 c -0.1638,-0.208853 -0.15914,-0.213511 0.0497,-0.04972 0.21935,0.172024 0.2891,0.280156 0.18073,0.280156 -0.0273,0 -0.13104,-0.103698 -0.23044,-0.230438 z m -8.92697,-20.78331 c 0.006,-0.153401 0.0375,-0.184601 0.0796,-0.07955 0.038,0.09505 0.0333,0.208629 -0.0104,0.252386 -0.0438,0.04375 -0.0749,-0.03404 -0.0692,-0.172831 z M 27.056074,23.475965 c 0,-8.545957 0.01578,-12.02264 0.03504,-7.725962 0.01926,4.296676 0.01926,11.288822 -1.5e-5,15.538103 -0.01926,4.249279 -0.03504,0.733814 -0.03504,-7.812141 z"
           id="path320" /><path
           style="fill:#cbcbcb;stroke-width:0.131679"
           d="m -15.967855,106.26906 c 3.711701,-0.0195 9.7853835,-0.0195 13.4970845,0 3.711696,0.0194 0.674855,0.0353 -6.748542,0.0353 -7.4233945,0 -10.4602385,-0.0159 -6.7485425,-0.0353 z M 4.2375945,77.859326 c 0.0025,-0.217269 0.0322,-0.290215 0.06559,-0.162091 0.03339,0.128119 0.0312,0.305886 -0.005,0.395036 -0.03608,0.08915 -0.06338,-0.01568 -0.06071,-0.232945 z m 0.116403,-0.932725 c 0.0063,-0.153401 0.03753,-0.1846 0.07956,-0.07955 0.03802,0.09505 0.03335,0.208629 -0.0104,0.252385 -0.04375,0.04375 -0.07489,-0.03404 -0.06917,-0.172831 z M -52.953487,76.772976 c -0.16379,-0.208853 -0.15913,-0.213511 0.0497,-0.04972 0.12674,0.0994 0.23044,0.203095 0.23044,0.230437 0,0.108381 -0.10813,0.03862 -0.28016,-0.180719 z m -0.71995,-0.592557 -0.25084,-0.296276 0.29628,0.250848 c 0.27842,0.235732 0.35622,0.341709 0.25084,0.341709 -0.025,0 -0.15831,-0.133329 -0.29628,-0.296281 z m 58.1591115,0.08779 c 0.0063,-0.153397 0.03753,-0.184601 0.07956,-0.07955 0.03802,0.09505 0.03334,0.208629 -0.0104,0.252385 -0.04375,0.04375 -0.07489,-0.03404 -0.06917,-0.17283 z m -59.3379015,-1.141214 -0.52052,-0.559636 0.55964,0.520518 c 0.3078,0.286287 0.55963,0.53812 0.55963,0.559635 0,0.09963 -0.11467,-6.4e-5 -0.59875,-0.520517 z m -1.44847,-1.448469 -0.52052,-0.559636 0.55964,0.520523 c 0.52045,0.484077 0.62014,0.598748 0.52052,0.598748 -0.0215,0 -0.27335,-0.251838 -0.55964,-0.559635 z M 5.5287155,73.26727 c 0,-0.142208 0.523056,-1.135968 0.597902,-1.135968 0.03623,0 -0.06115,0.251833 -0.216373,0.55963 -0.305259,0.605313 -0.381529,0.720532 -0.381529,0.576338 z m -62.8891525,-0.773854 -0.25085,-0.296276 0.29628,0.250848 c 0.16295,0.137963 0.29627,0.271287 0.29627,0.296276 0,0.105374 -0.10597,0.02757 -0.3417,-0.250848 z m -0.59684,-0.724234 c -0.1638,-0.208848 -0.15914,-0.213507 0.0497,-0.04972 0.12674,0.0994 0.23043,0.203095 0.23043,0.230438 0,0.108375 -0.10813,0.03862 -0.28015,-0.180724 z M 6.7138255,71.028151 c 0,-0.02732 0.103697,-0.131041 0.230437,-0.230438 0.208858,-0.163793 0.213507,-0.159134 0.04972,0.04972 -0.172025,0.219344 -0.280161,0.289099 -0.280161,0.180719 z m 0.395036,-0.526714 c 0,-0.02732 0.103698,-0.13104 0.230438,-0.230438 0.208858,-0.163792 0.213506,-0.159134 0.04972,0.04972 -0.172024,0.219344 -0.280161,0.289099 -0.280161,0.180724 z m 0.395037,-0.518203 c 0,-0.02265 0.192583,-0.215244 0.427958,-0.427954 l 0.427953,-0.386755 -0.38675,0.427958 c -0.360512,0.398914 -0.469161,0.488482 -0.469161,0.386751 z m 1.843505,-1.868141 c 0.170089,-0.181058 0.338888,-0.329193 0.375099,-0.329193 0.03623,0 -0.07333,0.148135 -0.243422,0.329193 -0.170088,0.181062 -0.338888,0.329198 -0.375099,0.329198 -0.03623,0 0.07333,-0.148136 0.243422,-0.329198 z m 6.8226085,-3.44776 c 0.09506,-0.03802 0.208634,-0.03334 0.25239,0.0104 0.04375,0.04375 -0.03404,0.07488 -0.172825,0.06916 -0.153406,-0.0063 -0.184601,-0.03753 -0.07957,-0.07956 z m 0.658396,-0.131677 c 0.09506,-0.03802 0.208634,-0.03335 0.25239,0.0104 0.04375,0.04375 -0.03404,0.07488 -0.17283,0.06916 -0.153406,-0.0063 -0.184601,-0.03753 -0.07956,-0.07956 z m 1.046743,-0.134862 c 0.163793,-0.0315 0.400815,-0.03031 0.526714,0.0025 0.125884,0.03295 -0.0082,0.05873 -0.297819,0.05726 -0.289692,-0.0015 -0.392707,-0.02842 -0.228895,-0.05992 z m 7.93211,-1.010015 c 0,-0.02732 0.103697,-0.13104 0.230437,-0.230437 0.208853,-0.163793 0.213502,-0.159135 0.04972,0.04972 -0.172024,0.219345 -0.280156,0.2891 -0.280156,0.180724 z m 1.248022,-13.315687 c 1.5e-5,-6.155985 0.01612,-8.655089 0.03583,-5.553559 0.01971,3.101531 0.01966,8.138245 -2.5e-5,11.1927 -0.01971,3.054459 -0.03578,0.516845 -0.03578,-5.639141 z m -91.17428,8.021434 c 0.006,-0.153396 0.0375,-0.184601 0.0796,-0.07955 0.038,0.09505 0.0333,0.208629 -0.0104,0.252385 -0.0437,0.04375 -0.0749,-0.03404 -0.0692,-0.17283 z m -0.12128,-0.844938 c 0,-0.181057 0.0299,-0.255127 0.0664,-0.164599 0.0365,0.09053 0.0365,0.23867 0,0.329198 -0.0365,0.09053 -0.0664,0.01647 -0.0664,-0.164599 z m -0.13168,-1.053432 c 0,-0.181057 0.0299,-0.255128 0.0664,-0.164599 0.0365,0.09053 0.0365,0.238669 0,0.329198 -0.0365,0.09053 -0.0664,0.01647 -0.0664,-0.164599 z m -0.1166,-1.8435 c 0,-0.325909 0.0257,-0.459233 0.0571,-0.296282 0.0314,0.162952 0.0314,0.429606 0,0.592558 -0.0314,0.162951 -0.0571,0.02961 -0.0571,-0.296276 z m 9.9e-4,-3.65409 c 0.0852,-2.483332 0.25987,-3.266537 0.92218,-4.134881 0.23484,-0.307902 0.71892,-0.709115 1.07943,-0.894646 l 0.65364,-0.336385 24.84088,-0.03424 24.840886,-0.03424 -5.195816,-20.771043 C -21.89929,6.2940075 -22.534371,3.6333535 -22.479368,2.9903725 c 0.167299,-1.955756 1.816755,-3.47199701 3.769898,-3.46543001 1.448709,0.0049 2.9189,0.906311 3.457707,2.12007601 0.135375,0.304951 2.83414,10.9116815 5.9972335,23.5705125 l 5.751115,23.016055 0.04957,2.337297 0.04957,2.337303 H -33.983558 -64.563007 l 0.0757,-2.20562 z M -3.4027925,4.6129715 c 0.04937,-2.821716 0.12774,-3.086487 1.208272,-4.08248301 1.19718305,-1.103524 0.05904,-1.020072 13.9121035,-1.020072 11.760871,0 12.340877,0.01115 12.957676,0.249053 0.833511,0.321497 1.589428,1.011025 2.027524,1.84945201 0.332697,0.636756 0.350579,0.774855 0.397366,3.069889 l 0.04897,2.403139 H 11.851568 -3.4459985 Z M -32.954424,-17.377 c 0.887187,-0.02278 2.338946,-0.02278 3.226132,0 0.887186,0.02278 0.161307,0.04142 -1.613066,0.04142 -1.774372,0 -2.500252,-0.01864 -1.613066,-0.04142 z"
           id="path318" /><path
           style="fill:#000000;stroke-width:0.131679"
           d="m -58.928587,113.70889 c 0.0387,-0.16295 1.57876,-6.33395 3.42236,-13.713325 1.84361,-7.379372 3.32007,-13.468723 3.28104,-13.531884 -0.039,-0.06316 -0.31879,-0.240819 -0.62168,-0.394807 -2.03638,-1.035287 -5.30983,-3.498772 -7.57948,-5.704064 -6.45475,-6.271697 -10.37186,-14.160926 -11.41066,-22.981544 -0.27826,-2.362829 -0.3909,-7.37885 -0.20618,-9.181645 0.3104,-3.029267 1.34467,-5.223355 3.43089,-7.278207 1.75997,-1.733508 4.06418,-2.844234 6.52696,-3.146263 0.81134,-0.0995 7.28407,-0.145085 20.63763,-0.145339 11.705798,-2.64e-4 19.455547,-0.04847 19.455547,-0.121101 0,-0.0664 -1.746696,-7.150469 -3.881546,-15.742375 -2.13485,-8.591906 -3.978862,-16.1370935 -4.097804,-16.7670815 -0.699879,-3.706976 0.842147,-7.811762 3.906509,-10.398904 1.221997,-1.031693 3.454346,-2.158774 4.928753,-2.488457 2.248024,-0.502668 4.995337,-0.224465 7.057118,0.71463 1.715999,0.781601 3.648216,2.31413 4.5398665,3.600779 l 0.378035,0.545507 0.332622,-0.444022 c 1.606479,-2.14449 3.775206,-3.62287 6.390753,-4.356461 1.05193,-0.295037 1.07114,-0.295522 13.4312425,-0.339203 8.157082,-0.02883 12.789677,0.0039 13.585673,0.09588 2.578261,0.298044 4.865919,1.417629 6.75343,3.305131 1.854628,1.854637 2.975547,4.09258999 3.29501,6.578658 0.101264,0.788014 0.132613,9.9072985 0.105952,30.8128505 l -0.03787,29.693578 -0.299292,1.053427 c -1.166869,4.107096 -4.269306,7.182882 -8.325673,8.254146 -0.806108,0.212889 -1.653017,0.279519 -4.608756,0.362578 -3.377496,0.09491 -3.678899,0.123336 -4.47907,0.422464 -1.787949,0.668389 -3.352333,2.05614 -4.255649,3.77516 -0.912941,1.737325 -0.873017,0.812992 -0.875545,20.269965 l -0.0025,17.546209 H -23.574822 -58.998947 Z M 4.2145365,92.442755 c 0.0015,-8.51857 0.05349,-14.282908 0.133653,-14.846789 0.349225,-2.456303 1.482545,-5.225953 2.909629,-7.110657 2.211781,-2.921036 5.3723525,-4.941264 9.0027225,-5.754509 0.94206,-0.211028 1.900789,-0.283874 4.674599,-0.355187 3.252717,-0.08362 3.52723,-0.109515 4.045622,-0.381629 0.750652,-0.394016 1.459438,-1.126686 1.797933,-1.85851 l 0.279514,-0.604323 V 31.903412 2.2756715 l -0.351887,-0.66675 c -0.443481,-0.84029401 -1.199503,-1.52872201 -2.031028,-1.84945201 -0.616795,-0.237905 -1.1968,-0.249053 -12.957671,-0.249053 -11.55981145,0 -12.34267745,0.01441 -12.8146565,0.235918 -0.679224,0.318776 -1.629272,1.214827 -1.977392,1.86502401 l -0.285178,0.532635 -0.06692,23.2413145 c -0.03678,12.782724 -0.08125,23.133686 -0.09876,23.002134 -0.100104,-0.75203 -11.5226485,-46.2836875 -11.7262915,-46.7424225 -0.538807,-1.21376501 -2.008998,-2.11520401 -3.457707,-2.12007601 -1.953143,-0.0066 -3.602599,1.50967401 -3.769898,3.46543001 -0.055,0.642981 0.580078,3.303635 5.133039,21.5047565 l 5.195813,20.770993 -24.840879,0.03424 -24.84088,0.03424 -0.65364,0.336385 c -0.78406,0.403512 -1.42771,1.20423 -1.71892,2.138403 -0.29188,0.936312 -0.40623,5.366678 -0.19967,7.735982 0.63775,7.315414 4.06536,14.381957 9.44579,19.473984 2.94278,2.785038 6.72,5.158099 10.38345,6.523455 0.72423,0.269919 1.33367,0.506647 1.35432,0.526062 0.0312,0.02931 -5.76092,23.352906 -5.97706,24.068436 -0.0661,0.21893 1.26498,0.23044 26.670067,0.23044 H 4.2119275 l 0.0025,-13.925046 z"
           id="path314"
           sodipodi:nodetypes="ssssssssscssssssscssscssscsssssccccscsssssscccsssssccsscsscccssssssssccc" /></g></g></g></svg>
