<?xml version="1.0" encoding="UTF-8" standalone="no"?>
<!-- Created with Inkscape (http://www.inkscape.org/) -->

<svg
   width="290mm"
   height="290mm"
   viewBox="0 0 290 290"
   version="1.1"
   id="svg5"
   xml:space="preserve"
   inkscape:version="1.2 (dc2aedaf03, 2022-05-15)"
   sodipodi:docname="poop-win.svg"
   inkscape:export-filename="poop-win-512x512.png"
   inkscape:export-xdpi="44.844139"
   inkscape:export-ydpi="44.844139"
   xmlns:inkscape="http://www.inkscape.org/namespaces/inkscape"
   xmlns:sodipodi="http://sodipodi.sourceforge.net/DTD/sodipodi-0.dtd"
   xmlns="http://www.w3.org/2000/svg"
   xmlns:svg="http://www.w3.org/2000/svg"><sodipodi:namedview
     id="namedview7"
     pagecolor="#ffffff"
     bordercolor="#000000"
     borderopacity="0.25"
     inkscape:showpageshadow="2"
     inkscape:pageopacity="0.0"
     inkscape:pagecheckerboard="0"
     inkscape:deskcolor="#d1d1d1"
     inkscape:document-units="mm"
     showgrid="false"
     inkscape:zoom="0.52724989"
     inkscape:cx="767.18841"
     inkscape:cy="635.37235"
     inkscape:window-width="1920"
     inkscape:window-height="1017"
     inkscape:window-x="-8"
     inkscape:window-y="-8"
     inkscape:window-maximized="1"
     inkscape:current-layer="layer1" /><defs
     id="defs2" /><g
     inkscape:label="Layer 1"
     inkscape:groupmode="layer"
     id="layer1"
     transform="translate(20.574526,-0.50181919)"><path
       style="fill:#8c542c;fill-opacity:1;stroke:none;stroke-width:7.09999;stroke-opacity:1"
       d="m 134.73806,31.614517 -7.52727,38.389054 -52.439951,9.283629 -19.8218,28.3527 -1.254543,18.31635 -28.101792,22.8327 -0.752726,35.12724 -30.6108815,21.07635 3.5127239,32.11633 16.3090756,19.8218 55.952675,4.76727 157.570759,-4.01454 28.35271,-20.32362 -2.25819,-28.10179 -14.55271,-23.83634 -11.79272,-2.50909 3.26182,-26.34543 -27.34907,-26.84725 -13.29817,-3.26181 4.26545,-42.65451 -9.78544,-29.356338 -18.06544,-15.556349 z"
       id="path1489" /><path
       style="fill:#ffffff;fill-opacity:1;stroke:none;stroke-width:7.09999;stroke-opacity:1"
       d="m 85.309011,116.92353 -12.796351,3.0109 -5.018177,6.27273 -4.767268,12.29453 0.752726,30.10906 5.519994,10.78908 12.545444,4.01454 17.061802,-1.25454 7.778169,-11.54181 1.00364,-38.13814 -7.02545,-10.78908 z"
       id="path1946" /><path
       style="fill:#ffffff;fill-opacity:1;stroke:none;stroke-width:7.09999;stroke-opacity:1"
       d="m 163.34166,116.92353 12.04363,3.76363 7.52726,7.77817 3.76364,10.28727 -2.00727,36.38178 -11.54181,8.27999 -20.57453,-0.75272 -7.77817,-7.02545 -7.52727,-16.81089 1.75637,-19.8218 2.25818,-16.05817 z"
       id="path1948" /><g
       id="g1348"
       transform="matrix(0.95061757,0,0,0.95525397,142.39866,-0.96956359)"><g
         id="g1411"><path
           style="fill:#e61123;stroke-width:0.264583"
           d="m -24.19219,254.27569 c -4.863433,-0.55883 -9.593429,-1.89679 -13.956771,-3.94792 -1.987571,-0.93432 -2.710791,-1.40345 -2.707528,-1.75628 0.0084,-0.91274 1.728885,-4.72956 2.980496,-6.61225 1.633948,-2.45781 5.139545,-5.74705 7.640416,-7.16886 3.6661,-2.08429 7.027663,-2.963 11.335054,-2.963 6.336529,0 11.4499621,2.14573 16.0195067,6.72223 2.45605826,2.45979 3.79695598,4.39755 5.0179789,7.25159 1.4153012,3.30814 1.5213277,2.94408 -1.25891654,4.32269 -7.17192006,3.55627 -16.62651706,5.12201 -25.07023606,4.1518 z"
           id="path1356" /><path
           style="fill:#8c542c;stroke-width:0.264583"
           d="m -118.57726,282.17025 c 0.25743,-0.0671 0.61462,-0.0627 0.79375,0.01 0.17913,0.0725 -0.0315,0.12737 -0.46805,0.12197 -0.43657,-0.005 -0.58313,-0.0647 -0.3257,-0.13177 z m 198.702074,0 c 0.25744,-0.0671 0.614627,-0.0627 0.79375,0.01 0.17915,0.0725 -0.03149,0.12737 -0.468048,0.12197 -0.436562,-0.005 -0.583115,-0.0647 -0.325702,-0.13177 z m 33.530906,-14.76561 c 0.79042,-0.80036 1.49667,-1.4552 1.56943,-1.4552 0.0728,0 -0.51443,0.65484 -1.30484,1.4552 -0.79042,0.80037 -1.49667,1.45521 -1.56943,1.45521 -0.0728,0 0.51443,-0.65484 1.30484,-1.45521 z m -265.26992,0.0662 -0.50403,-0.59531 0.59531,0.50403 c 0.55945,0.47366 0.71576,0.68659 0.50403,0.68659 -0.0502,0 -0.3181,-0.26789 -0.59531,-0.59531 z m 267.91576,-2.94417 c 0,-0.0549 0.20836,-0.2633 0.46302,-0.46302 0.41965,-0.32911 0.42899,-0.31975 0.0999,0.0999 -0.34565,0.44073 -0.56292,0.58089 -0.56292,0.36312 z M -136.40927,256.226 c -0.32911,-0.41965 -0.31975,-0.42901 0.0999,-0.0999 0.44073,0.34565 0.58089,0.56292 0.36313,0.56292 -0.0549,0 -0.2633,-0.20836 -0.46302,-0.46302 z m 113.209267,-1.82888 c 0.181902,-0.0734 0.479558,-0.0734 0.661459,0 0.181901,0.0734 0.03307,0.13346 -0.330729,0.13346 -0.363802,0 -0.512631,-0.0601 -0.33073,-0.13346 z m 7.9375,0 c 0.181901,-0.0734 0.479558,-0.0734 0.661459,0 0.181901,0.0734 0.03307,0.13346 -0.33073,0.13346 -0.363802,0 -0.51263,-0.0601 -0.330729,-0.13346 z m -129.551307,-9.29674 c -0.14015,-0.26188 -0.50409,-1.12508 -0.80875,-1.91823 -2.22704,-5.79785 -2.642,-13.42809 -1.06407,-19.56605 2.31747,-9.01463 8.42774,-16.53201 16.86254,-20.74572 4.58959,-2.2928 7.66596,-3.01989 14.08607,-3.32923 2.69213,-0.12971 4.94531,-0.24279 5.00706,-0.25128 0.0617,-0.008 -0.17595,-0.34285 -0.52821,-0.74304 l -0.64047,-0.7276 0.80727,0.7276 0.80726,0.72761 h 91.384587 91.384583 l 0.807255,-0.72761 0.80727,-0.7276 -0.623967,0.71005 -0.623993,0.71006 0.889529,0.13919 c 0.489241,0.0765 2.734998,0.19392 4.990571,0.26083 2.950606,0.0875 4.73194,0.27856 6.349999,0.68099 13.134473,3.26672 22.376606,13.27473 24.499196,26.52937 0.9143,5.70947 -0.0726,13.26663 -2.31595,17.73461 l -0.49815,0.99219 -49.0087,-0.009 -49.0086857,-0.01 1.5874997,-1.36005 c 10.143834,-8.69054 16.034655,-20.16521 16.712308,-32.55376 l 0.170053,-3.10886 h -46.078157 -46.078161 v 1.5283 c 0,3.65669 0.907138,8.62411 2.391609,13.0963 2.829512,8.5243 8.642731,16.65388 15.732349,22.00112 0.472324,0.35625 -4.749191,0.40002 -48.607878,0.40754 -47.046917,0.008 -49.147887,-0.0119 -49.391867,-0.46773 z m 273.06339,-9.31344 c 0,-0.36381 0.0601,-0.51263 0.13346,-0.33073 0.0734,0.1819 0.0734,0.47955 0,0.66146 -0.0734,0.1819 -0.13346,0.0331 -0.13346,-0.33073 z m -294.50213,-0.68351 c 0.0127,-0.30823 0.0754,-0.37092 0.15985,-0.15985 0.0764,0.19099 0.067,0.4192 -0.0209,0.50712 -0.0879,0.0879 -0.15045,-0.0684 -0.13896,-0.34727 z m 0.0405,-6.46024 c 0,-0.50933 0.0545,-0.71769 0.121,-0.46302 0.0666,0.25466 0.0666,0.67138 0,0.92604 -0.0666,0.25466 -0.121,0.0463 -0.121,-0.46302 z m 294.44073,-1.21268 c 0.0127,-0.30822 0.0754,-0.37092 0.15986,-0.15985 0.0764,0.191 0.067,0.4192 -0.0209,0.50712 -0.0879,0.0879 -0.15047,-0.0684 -0.13898,-0.34727 z m -0.26458,-2.38125 c 0.0127,-0.30822 0.0754,-0.37092 0.15986,-0.15985 0.0764,0.191 0.067,0.4192 -0.0209,0.50712 -0.0879,0.0879 -0.15047,-0.0684 -0.13899,-0.34727 z m -12.49005,-27.03159 c -0.32909,-0.41965 -0.31975,-0.42901 0.0999,-0.0999 0.25466,0.19972 0.46302,0.40808 0.46302,0.46302 0,0.21776 -0.21727,0.0776 -0.56292,-0.36312 z m -269.04749,0.0985 c 0,-0.0549 0.20836,-0.2633 0.46302,-0.46302 0.41965,-0.32911 0.42901,-0.31975 0.0999,0.0999 -0.34564,0.44073 -0.56292,0.58089 -0.56292,0.36313 z m 40.4475,-1.68604 c -0.32911,-0.41965 -0.31975,-0.42901 0.0999,-0.0999 0.25466,0.19972 0.46302,0.40808 0.46302,0.46302 0,0.21776 -0.21727,0.0776 -0.56292,-0.36312 z m 51.701629,-6.34637 c 0.695616,-0.0547 1.767179,-0.054 2.38125,0.002 0.614074,0.0555 0.04493,0.10023 -1.264753,0.0994 -1.309688,-7.9e-4 -1.81211,-0.0462 -1.116497,-0.10089 z m 82.814582,0 c 0.695616,-0.0547 1.767178,-0.054 2.38125,0.002 0.614074,0.0555 0.04493,0.10023 -1.264754,0.0994 -1.309687,-7.9e-4 -1.81211,-0.0462 -1.116496,-0.10089 z m -85.584153,-0.25052 c 0.190995,-0.0764 0.419201,-0.067 0.507119,0.0209 0.08792,0.0879 -0.06835,0.15045 -0.347266,0.13896 -0.308226,-0.0127 -0.370919,-0.0754 -0.159853,-0.15985 z m 7.408333,0 c 0.190995,-0.0764 0.419201,-0.067 0.507119,0.0209 0.08792,0.0879 -0.06835,0.15045 -0.347265,0.13896 -0.308227,-0.0127 -0.37092,-0.0754 -0.159854,-0.15985 z m 75.406249,0 c 0.190995,-0.0764 0.4192,-0.067 0.507119,0.0209 0.08792,0.0879 -0.06835,0.15045 -0.347266,0.13896 -0.308226,-0.0127 -0.370919,-0.0754 -0.159853,-0.15985 z m 7.408333,0 c 0.190995,-0.0764 0.4192,-0.067 0.507119,0.0209 0.08792,0.0879 -0.06835,0.15045 -0.347266,0.13896 -0.308226,-0.0127 -0.370919,-0.0754 -0.159853,-0.15985 z m 10.897526,-4.68165 c 0,-0.055 0.208359,-0.2633 0.463021,-0.46303 0.419645,-0.3291 0.429003,-0.31974 0.0999,0.0999 -0.345644,0.44073 -0.562917,0.58089 -0.562917,0.36313 z m -112.732524,-0.8923 -0.641432,-0.7276 0.727604,0.64143 c 0.680056,0.59952 0.848939,0.81378 0.641432,0.81378 -0.04739,0 -0.374814,-0.32742 -0.727604,-0.72761 z m 31.637734,-0.85989 c 0.864015,-0.87313 1.630465,-1.5875 1.703226,-1.5875 0.07276,0 -0.574628,0.71437 -1.438643,1.5875 -0.864015,0.87312 -1.630466,1.5875 -1.703226,1.5875 -0.07276,0 0.574627,-0.71438 1.438643,-1.5875 z m 50.3888812,0.0661 -0.9117991,-0.99218 0.9921875,0.9118 c 0.9235069,0.84868 1.1138402,1.07257 0.9117991,1.07257 -0.044214,0 -0.4906989,-0.44648 -0.9921875,-0.99219 z m -84.0161022,-1.19062 -0.504029,-0.59531 0.595313,0.50403 c 0.559445,0.47366 0.715761,0.68659 0.504028,0.68659 -0.05021,0 -0.318097,-0.26789 -0.595312,-0.59531 z m 117.632427,-0.0337 c 0,-0.0549 0.20836,-0.2633 0.463021,-0.46302 0.419645,-0.32911 0.429004,-0.31975 0.0999,0.0999 -0.345643,0.44073 -0.562917,0.58089 -0.562917,0.36313 z M 4.2211569,181.27987 c -0.1772258,-0.17723 -8.0391263,-0.24418 -23.2992979,-0.19844 l -23.031815,0.069 0.594255,-0.79375 c 1.732923,-2.31468 3.285886,-6.02304 3.827663,-9.14017 0.199761,-1.14934 0.270261,-5.83885 0.215604,-14.34173 l -0.08121,-12.63398 18.697223,1.3e-4 c 14.7087187,1e-4 18.72632655,-0.0704 18.83365743,-0.3306 0.07504112,-0.1819 0.05519737,0.086 -0.04409811,0.59531 -0.09929283,0.50932 -0.18053314,6.70057 -0.18053314,13.75833 0,11.63601 0.0451723,12.99262 0.48455262,14.55209 0.62458598,2.2168 2.2972103,5.79129 3.4809562,7.43898 0.8970459,1.24862 1.0611114,1.58284 0.5030469,1.02478 z m -103.3519419,-0.19551 -20.566715,-0.0694 -0.12001,-0.59369 c -0.78519,-3.88442 -0.0176,-10.7639 1.69978,-15.23379 2.29425,-5.9714 6.86558,-11.70568 12.13639,-15.22389 6.218902,-4.15106 11.543157,-5.71755 19.444476,-5.7209 l 3.668863,-0.002 -0.183391,0.7276 c -0.100864,0.40019 -0.247039,5.19245 -0.324829,10.64948 -0.161303,11.3154 0.07508,15.19393 1.122373,18.41581 0.735288,2.26203 2.470182,5.69725 3.360211,6.65346 0.304758,0.32742 0.503587,0.56629 0.441838,0.53082 -0.06175,-0.0355 -9.367289,-0.0957 -20.678986,-0.13392 z m 36.507867,-0.2414 c 0.181901,-0.0734 0.479557,-0.0734 0.661458,0 0.181901,0.0734 0.03307,0.13345 -0.330729,0.13345 -0.363802,0 -0.51263,-0.06 -0.330729,-0.13345 z m 1.852083,0 c 0.181901,-0.0734 0.479557,-0.0734 0.661458,0 0.181901,0.0734 0.03307,0.13345 -0.330729,0.13345 -0.363802,0 -0.51263,-0.06 -0.330729,-0.13345 z m 81.772785,-0.006 c 0.190994,-0.0764 0.4192,-0.067 0.507119,0.0209 0.08792,0.0879 -0.06835,0.15046 -0.347266,0.13897 -0.308226,-0.0127 -0.370919,-0.0754 -0.159853,-0.15985 z m 1.443707,-0.003 c 0.257431,-0.0671 0.614619,-0.0627 0.79375,0.01 0.17913,0.0725 -0.03149,0.12736 -0.468056,0.12197 -0.436563,-0.005 -0.583126,-0.0647 -0.325694,-0.13178 z m 19.499211,-1.33798 c 1.308976,-1.97307 2.481419,-4.76987 3.092723,-7.37751 0.43525,-1.85664 0.487926,-3.33815 0.487926,-13.72301 0,-6.40291 -0.08702,-12.20721 -0.193376,-12.89843 l -0.193376,-1.25677 3.632959,0.002 c 4.403008,0.002 8.014211,0.51333 11.228589,1.59024 14.123989,4.73197 23.386681,18.29827 22.308901,32.67399 l -0.188277,2.51129 H 61.52825 40.935576 l 1.009292,-1.52135 z m 58.840202,-3.10885 c 0,-1.30969 0.0439,-1.87883 0.0994,-1.26475 0.0555,0.61407 0.0562,1.68563 0.003,2.38125 -0.0547,0.69561 -0.10009,0.19319 -0.10089,-1.1165 z m -170.899112,0.59531 -0.777105,-0.85989 0.859895,0.7771 c 0.801545,0.72437 0.981512,0.94269 0.777105,0.94269 -0.04553,0 -0.432487,-0.38695 -0.859895,-0.8599 z m 101.748934,0.51252 c 0,-0.0455 0.386953,-0.43248 0.859896,-0.85989 l 0.859896,-0.77711 -0.777105,0.8599 c -0.724371,0.80154 -0.942687,0.98151 -0.942687,0.7771 z m -19.207429,-0.7771 -0.504029,-0.59531 0.595313,0.50403 c 0.559445,0.47366 0.715761,0.68659 0.504028,0.68659 -0.05021,0 -0.318098,-0.26789 -0.595312,-0.59531 z M -138.4713,171.60343 c 0.0127,-0.30822 0.0754,-0.37092 0.15985,-0.15985 0.0764,0.19099 0.067,0.4192 -0.0209,0.50712 -0.0879,0.0879 -0.15046,-0.0684 -0.13897,-0.34727 z m 238.91873,-0.52916 c 0.0127,-0.30823 0.0754,-0.37092 0.15986,-0.15986 0.0764,0.191 0.067,0.4192 -0.0209,0.50712 -0.0879,0.0879 -0.15047,-0.0683 -0.13898,-0.34726 z m -174.604094,-3.02066 c 0,-0.36381 0.06006,-0.51263 0.133453,-0.33073 0.0734,0.1819 0.0734,0.47955 0,0.66145 -0.0734,0.18191 -0.133453,0.0331 -0.133453,-0.33072 z m 27.595335,-9.78959 c 0,-5.74807 0.03495,-8.09955 0.07766,-5.22552 0.04271,2.87404 0.04271,7.57701 0,10.45104 -0.04271,2.87404 -0.07766,0.52256 -0.07766,-5.22552 z m -27.595335,-10.84791 c 0,-0.36381 0.06006,-0.51263 0.133453,-0.33073 0.0734,0.1819 0.0734,0.47955 0,0.66146 -0.0734,0.1819 -0.133453,0.0331 -0.133453,-0.33073 z m 162.127776,-4.69636 -0.641429,-0.7276 0.727604,0.64143 c 0.400182,0.35279 0.727604,0.68021 0.727604,0.7276 0,0.20751 -0.21426,0.0386 -0.813779,-0.64143 z m -211.646632,-2.3151 c 0.79042,-0.80037 1.49666,-1.45521 1.56942,-1.45521 0.0728,0 -0.51442,0.65484 -1.30484,1.45521 -0.79042,0.80036 -1.49666,1.45521 -1.56942,1.45521 -0.0728,0 0.51442,-0.65485 1.30484,-1.45521 z m 73.520414,-0.8599 c -0.329108,-0.41964 -0.319749,-0.429 0.0999,-0.0999 0.254661,0.19972 0.46302,0.40808 0.46302,0.46302 0,0.21776 -0.217273,0.0776 -0.562916,-0.36313 z m 61.946249,0.38023 c 0,-0.0455 0.386953,-0.43249 0.859895,-0.85989 l 0.859896,-0.77711 -0.777105,0.8599 c -0.724371,0.80154 -0.942686,0.98151 -0.942686,0.7771 z m 71.544654,-1.83544 -0.504031,-0.59531 0.595313,0.50403 c 0.559435,0.47366 0.715751,0.6866 0.504031,0.6866 -0.05022,0 -0.318109,-0.26789 -0.595313,-0.59532 z M -120.7651,137.79121 c 0,-0.0549 0.20835,-0.2633 0.46302,-0.46302 0.41964,-0.32911 0.429,-0.31975 0.0999,0.0999 -0.34564,0.44073 -0.56291,0.58088 -0.56291,0.36312 z m 41.010411,-1.67569 c 0,-0.15196 0.208359,-0.43969 0.463021,-0.63941 0.428297,-0.33589 0.433911,-0.32344 0.07487,0.16604 -0.213484,0.29104 -0.421844,0.57877 -0.463021,0.63941 -0.04118,0.0606 -0.07487,-0.0141 -0.07487,-0.16604 z m -0.364188,-1.01277 c -0.255318,-0.66534 -0.179999,-0.83702 0.131902,-0.30065 0.154435,0.26557 0.225055,0.5386 0.156933,0.60672 -0.06812,0.0681 -0.198099,-0.0696 -0.288835,-0.30607 z m 37.636687,-0.84966 c -0.329107,-0.41965 -0.319749,-0.42901 0.0999,-0.0999 0.44073,0.34564 0.580888,0.56292 0.363125,0.56292 -0.05494,0 -0.2633,-0.20836 -0.463021,-0.46302 z m 47.2618744,-0.33073 c 0.2633901,-0.29104 0.5384218,-0.52917 0.6111822,-0.52917 0.07276,0 -0.083209,0.23813 -0.3465989,0.52917 -0.26339,0.29104 -0.5384217,0.52916 -0.6111822,0.52916 -0.07276,0 0.083209,-0.23812 0.3465989,-0.52916 z m -81.4916654,-1.5875 c 0.568389,-0.58209 1.092968,-1.05834 1.165728,-1.05834 0.07276,0 -0.332756,0.47625 -0.901144,1.05834 -0.568389,0.58208 -1.092968,1.05833 -1.165728,1.05833 -0.07276,0 0.332756,-0.47625 0.901144,-1.05833 z m 32.518612,-0.0661 -0.504029,-0.59531 0.595313,0.50403 c 0.559445,0.47366 0.715761,0.68659 0.504028,0.68659 -0.05021,0 -0.318098,-0.26789 -0.595312,-0.59531 z m 82.814581,0 -0.504028,-0.59531 0.595312,0.50403 c 0.559446,0.47366 0.715762,0.68659 0.504029,0.68659 -0.05021,0 -0.318098,-0.26789 -0.595313,-0.59531 z M 7.690101,131.01194 c 0.2633901,-0.29104 0.5384218,-0.52917 0.6111822,-0.52917 0.07276,0 -0.083209,0.23813 -0.3465988,0.52917 -0.2633901,0.29104 -0.5384218,0.52917 -0.6111822,0.52917 -0.07276,0 0.083209,-0.23813 0.3465988,-0.52917 z m -109.384321,-5.44601 c 0.0127,-0.30822 0.0754,-0.37092 0.15985,-0.15985 0.0764,0.191 0.067,0.4192 -0.0209,0.50712 -0.0879,0.0879 -0.15045,-0.0684 -0.13897,-0.34727 z m 28.374306,0.21721 -9.572519,-0.0694 -0.185793,-1.48704 c -0.102185,-0.81787 -0.123402,-2.87022 -0.04714,-4.56078 0.378571,-8.39266 3.454675,-15.42658 9.323805,-21.320097 4.51167,-4.530416 10.56985,-7.730556 16.857739,-8.904841 1.07301,-0.20039 7.295724,-0.376311 17.538094,-0.495816 13.630994,-0.159046 16.118101,-0.248372 17.594791,-0.63193 10.964738,-2.848007 19.1559811,-11.527385 21.03201444,-22.285364 0.31039593,-1.77994 0.39923508,-4.607272 0.39923508,-12.705765 0,-8.157098 0.0717338,-10.416229 0.33072916,-10.415671 0.18190104,3.97e-4 1.69994792,0.346926 3.37343742,0.770077 18.3140689,4.630806 33.1044469,18.495512 39.2569769,36.800042 2.02828,6.034379 2.811772,10.912975 2.811772,17.508154 0,6.623741 -0.978222,12.345421 -3.181273,18.607471 -1.067985,3.03568 -3.819387,8.82524 -4.277638,9.00109 -0.374742,0.1438 -95.275586,0.30579 -111.254228,0.1899 z m -28.374306,-9.47762 c 0.0127,-0.30823 0.0754,-0.37092 0.15985,-0.15986 0.0764,0.191 0.067,0.41921 -0.0209,0.50712 -0.0879,0.0879 -0.15045,-0.0684 -0.13897,-0.34726 z m 165.38547,-12.0165 c 0,-0.3638 0.06006,-0.51263 0.133453,-0.33072 0.0734,0.1819 0.0734,0.47955 0,0.66145 -0.0734,0.1819 -0.133453,0.0331 -0.133453,-0.33073 z m 0.29487,-6.085412 c 0,-0.654844 0.0516,-0.922734 0.114663,-0.595312 0.06307,0.327421 0.06307,0.863203 0,1.190625 -0.06306,0.327421 -0.114663,0.05953 -0.114663,-0.595313 z m -0.315756,-5.975172 c 0.0127,-0.308227 0.07539,-0.37092 0.15985,-0.159854 0.07643,0.190995 0.06703,0.419201 -0.02087,0.507119 -0.08792,0.08792 -0.150453,-0.06835 -0.138965,-0.347265 z m -152.685469,-4.97264 c 0,-0.05494 0.208359,-0.2633 0.46302,-0.463021 0.419645,-0.329107 0.429004,-0.319749 0.0999,0.0999 -0.345644,0.44073 -0.562917,0.580887 -0.562917,0.363125 z m 3.571875,-3.604271 c 0.26339,-0.291041 0.538421,-0.529166 0.611182,-0.529166 0.07276,0 -0.08321,0.238125 -0.346599,0.529166 -0.26339,0.291042 -0.538422,0.529167 -0.611182,0.529167 -0.07276,0 0.08321,-0.238125 0.346599,-0.529167 z m 30.774348,-13.145322 c 0.190995,-0.07643 0.4192,-0.06703 0.507119,0.02088 0.08792,0.08792 -0.06835,0.150452 -0.347266,0.138964 -0.308226,-0.0127 -0.370919,-0.07539 -0.159853,-0.159851 z m 95.16022,-28.195822 -1.844988,-1.918229 1.91823,1.844987 c 1.781651,1.713625 2.039061,1.991471 1.844987,1.991471 -0.04028,0 -0.903486,-0.863203 -1.918229,-1.918229 z M 5.6561167,24.733287 c 0.1909948,-0.07643 0.4192005,-0.06703 0.5071189,0.02089 C 6.251154,24.842095 6.0948832,24.904629 5.81597,24.89314 5.5077437,24.880445 5.4450506,24.81775 5.6561167,24.733288 Z M 2.0727403,24.46609 c 0.2574317,-0.06708 0.6146192,-0.06267 0.79375,0.0098 0.1791309,0.07248 -0.031493,0.127362 -0.4680558,0.12197 C 1.961872,24.59246 1.8153087,24.53317 2.0727403,24.466086 Z"
           id="path1354" /><path
           style="fill:#5f3b2e;stroke-width:0.264583"
           d="m -68.31146,282.15517 c 27.176015,-0.0371 71.645858,-0.0371 98.821873,0 27.176015,0.0371 4.941094,0.0675 -49.410936,0.0675 -54.352031,0 -76.586952,-0.0304 -49.410937,-0.0675 z m 179.05677,-12.0723 c 0,-0.0549 0.20836,-0.2633 0.46302,-0.46302 0.41965,-0.32911 0.42899,-0.31975 0.0999,0.0999 -0.34565,0.44073 -0.56292,0.58088 -0.56292,0.36312 z m -260.11916,-0.62771 c -0.32911,-0.41964 -0.31975,-0.429 0.0999,-0.0999 0.25466,0.19972 0.46302,0.40808 0.46302,0.46302 0,0.21776 -0.21727,0.0776 -0.56291,-0.36313 z m -4.23334,-4.23333 c -0.3291,-0.41964 -0.31975,-0.429 0.0999,-0.0999 0.25466,0.19972 0.46302,0.40808 0.46302,0.46302 0,0.21776 -0.21727,0.0776 -0.56292,-0.36313 z m 32.34881,-1.81392 c -4.07113,-0.68248 -10.46984,-3.28997 -12.35041,-5.03284 -0.33958,-0.3147 -0.66736,-0.52223 -0.72841,-0.46117 -0.0611,0.061 -0.62566,-0.39793 -1.25468,-1.01996 -0.62901,-0.62203 -1.04627,-0.95237 -0.92723,-0.73409 0.11904,0.21828 -0.63754,-0.43656 -1.68128,-1.45521 -2.067,-2.01729 -4.67985,-5.50637 -5.84504,-7.8052 l -0.73759,-1.45521 49.298011,0.0648 49.298018,0.0648 2.440704,1.57839 c 1.342387,0.86811 2.559145,1.50519 2.703907,1.41572 0.144761,-0.0895 0.187589,-0.0403 0.09518,0.1092 -0.216565,0.35042 4.587681,2.70453 7.362306,3.60759 5.506283,1.79213 10.02289,2.40988 16.213441,2.21756 6.407219,-0.19905 11.2099276,-1.19089 16.2149287,-3.34866 2.6845656,-1.15738 6.7060788,-3.5132 9.2406177,-5.41319 0.9474729,-0.71026 1.495298,-1.03706 1.2173876,-0.72621 l -0.505288,0.56518 49.12248,-0.0675 c 27.017355,-0.0372 49.122467,0.002 49.122467,0.0872 0,0.26653 -2.6597,4.54765 -3.51756,5.66196 -0.9304,1.20857 -5.026096,5.43928 -5.14783,5.31755 -0.04405,-0.044 -0.512075,0.31559 -1.040077,0.79921 -0.527976,0.48362 -1.048068,0.82485 -1.15578,0.75829 -0.107685,-0.0666 -0.253762,0.03 -0.324617,0.21466 -0.204549,0.53309 -5.122069,2.99007 -7.739671,3.86705 -5.170487,1.73227 2.718885,1.61556 -107.280708,1.58708 -84.369617,-0.0219 -100.223887,-0.0835 -102.093277,-0.39687 z m 73.749107,-18.82358 c -0.329107,-0.41964 -0.319749,-0.429 0.0999,-0.0999 0.254661,0.19972 0.463021,0.40808 0.463021,0.46302 0,0.21776 -0.217273,0.0776 -0.562917,-0.36313 z m 58.109791,-0.85989 c 0.26339,-0.29105 0.538421,-0.52917 0.611182,-0.52917 0.07276,0 -0.08321,0.23812 -0.346599,0.52917 -0.26339,0.29104 -0.538422,0.52916 -0.611182,0.52916 -0.07276,0 0.08321,-0.23812 0.346599,-0.52916 z m -59.556387,-0.33073 -0.504029,-0.59532 0.595313,0.50403 c 0.559445,0.47367 0.715761,0.6866 0.504028,0.6866 -0.05021,0 -0.318098,-0.26789 -0.595312,-0.59531 z m 62.599095,-2.4474 c 0.937477,-0.94588 1.764035,-1.71979 1.836796,-1.71979 0.07276,0 -0.634736,0.77391 -1.572213,1.71979 -0.937477,0.94589 -1.764035,1.71979 -1.836795,1.71979 -0.07276,0 0.634735,-0.7739 1.572212,-1.71979 z m -65.352082,0 c -0.642681,-0.65484 -1.10898,-1.19062 -1.03622,-1.19062 0.07276,0 0.658122,0.53578 1.300803,1.19062 0.642681,0.65484 1.10898,1.19063 1.03622,1.19063 -0.07276,0 -0.658122,-0.53579 -1.300803,-1.19063 z m 16.536458,-2.51354 c 0.716664,-0.7276 1.362556,-1.32292 1.435317,-1.32292 0.07276,0 -0.45407,0.59532 -1.170734,1.32292 -0.716663,0.7276 -1.362556,1.32292 -1.435317,1.32292 -0.07276,0 0.45407,-0.59532 1.170734,-1.32292 z m 32.1326317,-0.19844 -0.9117991,-0.99219 0.9921875,0.9118 c 0.5457031,0.50149 0.9921874,0.94798 0.9921874,0.99219 0,0.20204 -0.2238957,0.0117 -1.0725758,-0.9118 z m -51.0840897,0 c -0.329108,-0.41964 -0.319749,-0.429 0.0999,-0.0999 0.440729,0.34564 0.580887,0.56291 0.363124,0.56291 -0.05494,0 -0.2633,-0.20836 -0.46302,-0.46302 z m 70.545207,-0.33073 c 0.26339,-0.29104 0.538422,-0.52916 0.611182,-0.52916 0.07276,0 -0.08321,0.23812 -0.346599,0.52916 -0.26339,0.29104 -0.538422,0.52917 -0.611182,0.52917 -0.07276,0 0.08321,-0.23813 0.346599,-0.52917 z m 93.021919,-0.6835 c 0.0127,-0.30823 0.0754,-0.37092 0.15986,-0.15986 0.0764,0.191 0.067,0.4192 -0.0209,0.50712 -0.0879,0.0879 -0.15047,-0.0684 -0.13899,-0.34726 z m -256.9104,-0.52917 c 0.0127,-0.30823 0.0754,-0.37092 0.15985,-0.15985 0.0764,0.19099 0.067,0.4192 -0.0209,0.50712 -0.0879,0.0879 -0.15045,-0.0684 -0.13896,-0.34727 z m 257.17498,-1.32292 c 0.0127,-0.30822 0.0754,-0.37092 0.15986,-0.15985 0.0764,0.191 0.067,0.4192 -0.0209,0.50712 -0.0879,0.0879 -0.15047,-0.0684 -0.13899,-0.34727 z m -257.39373,-1.03628 c 0.003,-0.58209 0.0571,-0.78906 0.1204,-0.45994 0.0633,0.32912 0.0609,0.80537 -0.005,1.05834 -0.0662,0.25296 -0.118,-0.0163 -0.11507,-0.5984 z m 275.91456,0.50712 c 0.0127,-0.30823 0.0754,-0.37092 0.15986,-0.15986 0.0764,0.191 0.067,0.4192 -0.0209,0.50712 -0.0879,0.0879 -0.15047,-0.0684 -0.13898,-0.34726 z m -294.43005,-1.16858 c 0,-0.65484 0.0516,-0.92273 0.11466,-0.59531 0.0631,0.32742 0.0631,0.8632 0,1.19062 -0.0631,0.32742 -0.11466,0.0595 -0.11466,-0.59531 z m 143.547071,-1.76824 c 0.190994,-0.0764 0.4192,-0.067 0.507119,0.0209 0.08792,0.0879 -0.06835,0.15045 -0.347266,0.13896 -0.308226,-0.0127 -0.370919,-0.0754 -0.159853,-0.15985 z m 2.89388,-0.27524 c 0.472942,-0.0587 1.246849,-0.0587 1.719791,0 0.472943,0.0587 0.08599,0.10671 -0.859895,0.10671 -0.945886,0 -1.332839,-0.048 -0.859896,-0.10671 z m -146.451631,-1.3961 c 0,-0.50933 0.0545,-0.71769 0.121,-0.46302 0.0666,0.25466 0.0666,0.67138 0,0.92604 -0.0666,0.25466 -0.121,0.0463 -0.121,-0.46302 z m 18.52083,-1.32292 c 0,-0.50932 0.0544,-0.71768 0.121,-0.46302 0.0666,0.25466 0.0666,0.67138 0,0.92604 -0.0666,0.25466 -0.121,0.0463 -0.121,-0.46302 z m 275.96041,-0.26458 c 0,-0.50933 0.0545,-0.71769 0.12099,-0.46302 0.0666,0.25466 0.0666,0.67138 0,0.92604 -0.0665,0.25466 -0.12099,0.0463 -0.12099,-0.46302 z m -18.56134,-0.68351 c 0.0127,-0.30823 0.0754,-0.37092 0.15986,-0.15985 0.0764,0.19099 0.067,0.4192 -0.0209,0.50712 -0.0879,0.0879 -0.15047,-0.0684 -0.13899,-0.34727 z m -257.17498,-1.32292 c 0.0127,-0.30822 0.0754,-0.37092 0.15985,-0.15985 0.0764,0.191 0.067,0.4192 -0.0209,0.50712 -0.0879,0.0879 -0.15045,-0.0683 -0.13896,-0.34727 z m -18.52084,-0.26458 c 0.0127,-0.30823 0.0754,-0.37092 0.15986,-0.15985 0.0764,0.19099 0.067,0.4192 -0.0209,0.50712 -0.0879,0.0879 -0.15046,-0.0684 -0.13897,-0.34727 z m 275.45214,-0.11024 c 0,-0.36381 0.0601,-0.51263 0.13345,-0.33073 0.0734,0.1819 0.0734,0.47955 0,0.66146 -0.0734,0.1819 -0.13345,0.0331 -0.13345,-0.33073 z m -83.364639,-8.35643 c 0.0127,-0.30822 0.07539,-0.37092 0.159851,-0.15985 0.07643,0.191 0.06703,0.4192 -0.02088,0.50712 -0.08792,0.0879 -0.150452,-0.0684 -0.138964,-0.34727 z m -90.222915,-0.26458 c 0.0127,-0.30823 0.07539,-0.37092 0.159851,-0.15985 0.07643,0.19099 0.06703,0.4192 -0.02088,0.50712 -0.08792,0.0879 -0.150452,-0.0684 -0.138964,-0.34727 z m -0.264583,-1.5875 c 0.0127,-0.30823 0.07539,-0.37092 0.159851,-0.15985 0.07643,0.19099 0.06703,0.4192 -0.02088,0.50712 -0.08792,0.0879 -0.150453,-0.0684 -0.138964,-0.34727 z m 91.037551,-1.16858 c 0,-0.3638 0.06005,-0.51263 0.133453,-0.33073 0.0734,0.18191 0.0734,0.47956 0,0.66146 -0.0734,0.1819 -0.133453,0.0331 -0.133453,-0.33073 z m -91.281248,-0.52916 c 0,-0.3638 0.06006,-0.51263 0.133453,-0.33073 0.0734,0.1819 0.0734,0.47956 0,0.66146 -0.0734,0.1819 -0.133453,0.0331 -0.133453,-0.33073 z m 91.56544,-2.38125 c 0,-0.50933 0.05445,-0.71769 0.121002,-0.46302 0.06655,0.25466 0.06655,0.67138 0,0.92604 -0.06655,0.25466 -0.121002,0.0463 -0.121002,-0.46302 z m -91.799737,-0.52917 c 0,-0.65484 0.0516,-0.92273 0.114663,-0.59531 0.06307,0.32742 0.06307,0.8632 0,1.19062 -0.06306,0.32742 -0.114663,0.0595 -0.114663,-0.59531 z m -76.536639,0.69385 c 0,-0.0549 0.20836,-0.2633 0.46302,-0.46302 0.41964,-0.3291 0.429,-0.31975 0.0999,0.0999 -0.34564,0.44073 -0.56291,0.58089 -0.56291,0.36312 z m 243.53231,-1.55375 -0.77711,-0.85989 0.85989,0.7771 c 0.80156,0.72437 0.98153,0.94269 0.77711,0.94269 -0.0455,0 -0.43249,-0.38695 -0.85989,-0.8599 z m -241.94481,-0.33072 c 0.49365,-0.50933 0.95708,-0.92605 1.02984,-0.92605 0.0728,0 -0.27161,0.41672 -0.76526,0.92605 -0.49366,0.50932 -0.95709,0.92604 -1.02985,0.92604 -0.0728,0 0.27161,-0.41672 0.76527,-0.92604 z m 2.64583,-2.64584 c 0.49365,-0.50932 0.95708,-0.92604 1.02984,-0.92604 0.0728,0 -0.2716,0.41672 -0.76526,0.92604 -0.49365,0.50933 -0.95708,0.92604 -1.02984,0.92604 -0.0728,0 0.2716,-0.41671 0.76526,-0.92604 z m 235.859394,-0.46302 -0.777108,-0.85989 0.859896,0.7771 c 0.801555,0.72437 0.981524,0.94269 0.777107,0.94269 -0.04553,0 -0.432488,-0.38696 -0.859895,-0.8599 z m -233.478144,-1.35667 c 0,-0.0549 0.20836,-0.2633 0.46302,-0.46302 0.41964,-0.3291 0.429,-0.31975 0.0999,0.0999 -0.34565,0.44073 -0.56292,0.58089 -0.56292,0.36312 z m 226.483328,-3.0751 c -0.218282,-0.14106 -0.277813,-0.25648 -0.132292,-0.25648 0.145521,0 0.443177,0.11542 0.661458,0.25648 0.218282,0.14107 0.277813,0.25648 0.132292,0.25648 -0.145521,0 -0.443177,-0.11541 -0.661458,-0.25648 z m -213.303768,-2.82657 c 0.19099,-0.0764 0.4192,-0.067 0.50711,0.0209 0.0879,0.0879 -0.0684,0.15046 -0.34726,0.13897 -0.30823,-0.0127 -0.37092,-0.0754 -0.15985,-0.15985 z m 205.052075,0 c 0.191003,-0.0764 0.419206,-0.067 0.507127,0.0209 0.08792,0.0879 -0.06837,0.15046 -0.347266,0.13897 -0.308239,-0.0127 -0.370919,-0.0754 -0.159861,-0.15985 z m -203.199995,-0.26459 c 0.19099,-0.0764 0.4192,-0.067 0.50712,0.0209 0.0879,0.0879 -0.0683,0.15045 -0.34727,0.13896 -0.30822,-0.0127 -0.37092,-0.0754 -0.15985,-0.15985 z m 201.347912,0 c 0.191003,-0.0764 0.419206,-0.067 0.507127,0.0209 0.08792,0.0879 -0.06837,0.15045 -0.347266,0.13896 -0.308239,-0.0127 -0.370919,-0.0754 -0.159861,-0.15985 z m -197.527992,-0.27832 c 0.69122,-0.0545 1.82232,-0.0545 2.51354,0 0.69123,0.0545 0.12568,0.0991 -1.25677,0.0991 -1.38245,0 -1.94799,-0.0446 -1.25677,-0.0991 z m 191.038821,-0.001 c 0.842063,-0.0527 2.151751,-0.0522 2.910417,0.001 0.758666,0.0533 0.06972,0.0964 -1.531012,0.0958 -1.600729,-5.3e-4 -2.221468,-0.0442 -1.379405,-0.0968 z M -111.76927,197.9224 c -0.80037,-0.73505 -1.27662,-1.25723 -1.05833,-1.1604 0.21828,0.0968 -0.0198,-0.20117 -0.52917,-0.66224 -0.50932,-0.46107 -0.74745,-0.75992 -0.52917,-0.66412 0.21828,0.0958 0.15875,-0.0184 -0.13229,-0.25369 -0.29104,-0.23534 -0.52917,-0.54617 -0.52917,-0.69073 0,-0.14457 -0.17859,-0.37574 -0.39687,-0.51373 -0.21828,-0.13798 -0.27781,-0.25632 -0.13229,-0.26298 0.14552,-0.007 0.0537,-0.13485 -0.204,-0.28489 -0.25773,-0.15004 -0.39953,-0.38455 -0.31512,-0.52112 0.0844,-0.13658 0.0204,-0.24833 -0.14234,-0.24833 -0.1627,0 -0.22223,-0.11906 -0.13229,-0.26458 0.0899,-0.14552 0.0314,-0.26458 -0.13018,-0.26458 -0.29471,0 -1.13158,-1.6955 -1.14271,-2.31511 -0.003,-0.1819 -0.11218,-0.33073 -0.24203,-0.33073 -0.12986,0 -0.16252,-0.11906 -0.0726,-0.26458 0.0899,-0.14552 0.0304,-0.26458 -0.13229,-0.26458 -0.1627,0 -0.22223,-0.11906 -0.1323,-0.26459 0.0899,-0.14552 0.0247,-0.26458 -0.14498,-0.26458 -0.16968,0 -0.23997,-0.17859 -0.15621,-0.39687 0.0838,-0.21828 0.0242,-0.39688 -0.13229,-0.39688 -0.15653,0 -0.21901,-0.1709 -0.13886,-0.37978 0.0802,-0.20888 0.0185,-0.4222 -0.13705,-0.47404 -0.15554,-0.0519 -0.28279,-0.41673 -0.28279,-0.81085 0,-0.39412 -0.11807,-0.71658 -0.26237,-0.71658 -0.14431,0 -0.2001,-0.23812 -0.12399,-0.52917 0.0761,-0.29104 0.0166,-0.52916 -0.13229,-0.52916 -0.14887,0 -0.20841,-0.23813 -0.1323,-0.52917 0.0761,-0.29104 0.0176,-0.52917 -0.13011,-0.52917 -0.15248,0 -0.19852,-0.27881 -0.10655,-0.64524 0.0891,-0.35488 0.0424,-0.7191 -0.10361,-0.80936 -0.14606,-0.0903 -0.25615,-0.42499 -0.24467,-0.74382 0.0115,-0.31884 0.081,-0.43087 0.15434,-0.24897 0.10515,0.26057 4.45935,0.33073 20.525127,0.33073 h 20.39167 l 1.441426,1.59283 c 6.405948,7.0788 16.551383,9.50139 25.438155,6.07429 2.847617,-1.09816 6.489795,-3.5675 8.560091,-5.8036 l 1.725332,-1.86352 h 22.821341 22.8213412 l 2.0131669,2.05996 c 7.7374379,7.91729 19.0881739,9.39869 28.6789229,3.74293 1.114702,-0.65735 2.887559,-2.09907 4.260101,-3.46439 l 2.350857,-2.3385 h 20.469455 c 16.88149,0 20.469452,0.0618 20.469452,0.35278 0,0.19402 -0.08607,0.43885 -0.191267,0.54404 -0.105199,0.1052 -0.218149,0.6115 -0.251011,1.12512 -0.03286,0.51361 -0.183885,1.08342 -0.335597,1.26623 -0.151739,0.18281 -0.205449,0.40281 -0.11938,0.48888 0.08607,0.0861 0.05871,0.31324 -0.06078,0.50482 -0.119512,0.19159 -0.253815,0.58335 -0.298476,0.87058 -0.269637,1.73479 -3.582776,7.96756 -5.143765,9.67661 -0.408913,0.44771 -0.743479,0.91572 -0.743479,1.04003 0,0.12432 -0.476806,0.60367 -1.059603,1.06524 -0.582772,0.46156 -0.992876,0.94715 -0.911331,1.07906 0.08853,0.14325 -36.810066,0.23726 -91.610729,0.23341 l -91.75895,-0.006 z m 226.44957,-0.69816 c -0.32909,-0.41965 -0.31975,-0.42901 0.0999,-0.0999 0.25466,0.19972 0.46302,0.40808 0.46302,0.46302 0,0.21776 -0.21727,0.0776 -0.56292,-0.36312 z m -265.87249,-1.52136 c 0.93748,-0.94588 1.76404,-1.71979 1.8368,-1.71979 0.0728,0 -0.63474,0.77391 -1.57221,1.71979 -0.93748,0.94589 -1.76404,1.71979 -1.8368,1.71979 -0.0728,0 0.63474,-0.7739 1.57221,-1.71979 z m 262.9758,-1.38906 -0.64143,-0.7276 0.72761,0.64143 c 0.40018,0.35279 0.7276,0.68021 0.7276,0.7276 0,0.20751 -0.21426,0.0386 -0.81378,-0.64143 z m -260.06538,-1.22437 c 0,-0.055 0.20836,-0.2633 0.46302,-0.46303 0.41964,-0.3291 0.429,-0.31974 0.0999,0.0999 -0.34565,0.44073 -0.56292,0.58089 -0.56292,0.36313 z m 257.93498,-0.62771 c -0.32909,-0.41965 -0.31975,-0.42901 0.0999,-0.0999 0.25466,0.19972 0.46302,0.40808 0.46302,0.46302 0,0.21776 -0.21728,0.0776 -0.56293,-0.36312 z m -247.85993,-9.21632 c 0.0127,-0.30823 0.0754,-0.37092 0.15986,-0.15985 0.0764,0.19099 0.067,0.4192 -0.0209,0.50711 -0.0879,0.0879 -0.15045,-0.0684 -0.13896,-0.34726 z m 238.65415,-1.85208 c 0.0127,-0.30823 0.0754,-0.37092 0.15986,-0.15986 0.0764,0.191 0.067,0.4192 -0.0209,0.50712 -0.0879,0.0879 -0.15047,-0.0684 -0.13898,-0.34726 z m -238.89784,-0.904 c 0,-0.3638 0.0601,-0.51263 0.13345,-0.33073 0.0734,0.1819 0.0734,0.47956 0,0.66146 -0.0734,0.1819 -0.13345,0.0331 -0.13345,-0.33073 z m 76.902361,0.34843 c 0.190995,-0.0764 0.419201,-0.067 0.507119,0.0209 0.08792,0.0879 -0.06835,0.15046 -0.347265,0.13897 -0.308227,-0.0127 -0.37092,-0.0754 -0.159854,-0.15985 z M 82.221875,179.2984 c 0.0053,-0.43657 0.06469,-0.58313 0.131789,-0.3257 0.06707,0.25743 0.06268,0.61462 -0.0098,0.79375 -0.07247,0.17913 -0.127344,-0.0315 -0.121973,-0.46805 z m -202.382135,-0.79375 c 0.002,-0.72761 0.0534,-0.99386 0.11418,-0.59168 0.0608,0.40218 0.0592,0.9975 -0.004,1.32292 -0.0628,0.32542 -0.11256,-0.004 -0.11057,-0.73124 z m 0,-4.49792 c 0.002,-0.7276 0.0534,-0.99386 0.11418,-0.59167 0.0608,0.40218 0.0592,0.99749 -0.004,1.32291 -0.0628,0.32542 -0.11256,-0.004 -0.11057,-0.73124 z m 202.382135,-0.79375 c 0.0053,-0.43656 0.06469,-0.58313 0.131789,-0.32569 0.06707,0.25743 0.06268,0.61462 -0.0098,0.79375 -0.07247,0.17913 -0.127344,-0.0315 -0.121973,-0.46806 z m -220.672285,-0.66146 c 0,-0.3638 0.0601,-0.51263 0.13345,-0.33073 0.0734,0.1819 0.0734,0.47956 0,0.66146 -0.0734,0.1819 -0.13345,0.0331 -0.13345,-0.33073 z m 238.89784,-0.6835 c 0.0127,-0.30823 0.0754,-0.37092 0.15986,-0.15986 0.0764,0.191 0.067,0.4192 -0.0209,0.50712 -0.0879,0.0879 -0.15047,-0.0684 -0.13898,-0.34726 z m -220.3979,-0.26459 c 0.0127,-0.30822 0.0754,-0.37092 0.15985,-0.15985 0.0764,0.19099 0.067,0.4192 -0.0209,0.50712 -0.0879,0.0879 -0.15045,-0.0684 -0.13897,-0.34727 z M 81.9266,171.07427 c 0.0127,-0.30823 0.07541,-0.37092 0.159861,-0.15986 0.07644,0.191 0.06705,0.4192 -0.0209,0.50712 -0.08792,0.0879 -0.150468,-0.0683 -0.138985,-0.34726 z m -45.752016,-3.02066 c 0,-0.36381 0.06005,-0.51263 0.133453,-0.33073 0.0734,0.1819 0.0734,0.47955 0,0.66145 -0.0734,0.18191 -0.133453,0.0331 -0.133453,-0.33072 z M -74.078551,157.73486 c 0,-5.45704 0.03518,-7.68946 0.07818,-4.96094 0.043,2.72851 0.043,7.19336 0,9.92187 -0.043,2.72852 -0.07818,0.4961 -0.07818,-4.96093 z m 148.297124,-2.57969 -0.911807,-0.99219 0.992188,0.9118 c 0.545703,0.50149 0.992187,0.94797 0.992187,0.99219 0,0.20204 -0.22389,0.0117 -1.072568,-0.9118 z M -112.8276,155.81 c 0,-0.04 0.92273,-0.96275 2.05052,-2.05052 l 2.05052,-1.97775 -1.97776,2.05052 c -1.83689,1.90448 -2.12328,2.17124 -2.12328,1.97775 z m 184.135749,-3.56525 -0.911799,-0.99219 0.992187,0.9118 c 0.545703,0.50149 0.992188,0.94798 0.992188,0.99219 0,0.20204 -0.223896,0.0117 -1.072576,-0.9118 z m -178.579509,-1.48896 c 0,-0.0549 0.20836,-0.2633 0.46303,-0.46302 0.41964,-0.3291 0.429,-0.31975 0.0999,0.0999 -0.34564,0.44073 -0.56292,0.58089 -0.56292,0.36312 z m 143.445944,-3.33968 c 0,-0.36381 0.06005,-0.51263 0.133453,-0.33073 0.0734,0.1819 0.0734,0.47955 0,0.66146 -0.0734,0.1819 -0.133453,0.0331 -0.133453,-0.33073 z m -129.737215,-2.82658 c 0.190994,-0.0764 0.4192,-0.067 0.507119,0.0209 0.08792,0.0879 -0.06835,0.15045 -0.347266,0.13896 -0.308226,-0.0127 -0.370919,-0.0754 -0.159853,-0.15985 z m 148.960413,0 c 0.190995,-0.0764 0.419201,-0.067 0.507119,0.0209 0.08792,0.0879 -0.06835,0.15045 -0.347265,0.13896 -0.308227,-0.0127 -0.37092,-0.0754 -0.159854,-0.15985 z m -147.124866,-0.25907 c 0.181901,-0.0734 0.479557,-0.0734 0.661458,0 0.181901,0.0734 0.03307,0.13345 -0.330729,0.13345 -0.363802,0 -0.512631,-0.06 -0.330729,-0.13345 z m 144.991663,0 c 0.181901,-0.0734 0.479558,-0.0734 0.661459,0 0.181901,0.0734 0.03307,0.13345 -0.33073,0.13345 -0.363802,0 -0.51263,-0.06 -0.330729,-0.13345 z m -139.955711,-0.28472 c 0.768863,-0.0536 1.959488,-0.0531 2.645833,0.001 0.686345,0.0543 0.05728,0.0982 -1.397931,0.0975 -1.455209,-7.9e-4 -2.016766,-0.0451 -1.247902,-0.0987 z m 48.860063,-0.53224 c -0.08537,-0.40018 -0.400561,-1.44198 -0.700434,-2.3151 -2.714133,-7.90257 -9.261356,-13.53033 -17.807561,-15.30675 -0.291042,-0.0605 16.556301,-0.11504 37.438541,-0.12121 36.884193,-0.0109 37.914854,0.002 36.115624,0.45888 -4.49448,1.1408 -7.5345502,2.87777 -10.8754465,6.2138 -2.8877974,2.8836 -4.5342598,5.54441 -5.70412552,9.2183 l -0.82144128,2.57969 H -18.930884 -37.675859 Z m 84.225351,0.53224 c 0.768863,-0.0536 1.959488,-0.0531 2.645833,0.001 0.686345,0.0543 0.05728,0.0982 -1.397931,0.0975 -1.455209,-7.9e-4 -2.016766,-0.0451 -1.247902,-0.0987 z m 40.381099,-2.51661 -0.504032,-0.59532 0.595313,0.50403 c 0.559435,0.47367 0.715751,0.6866 0.504031,0.6866 -0.05022,0 -0.318108,-0.26789 -0.595312,-0.59531 z m -157.79882,-1.60415 c 0,-0.0455 0.386953,-0.43249 0.859896,-0.85989 l 0.859896,-0.77711 -0.777105,0.8599 c -0.724371,0.80154 -0.942687,0.98151 -0.942687,0.7771 z m 103.682914,-0.38023 c -0.329107,-0.41964 -0.319749,-0.429 0.0999,-0.0999 0.44073,0.34564 0.580888,0.56291 0.363125,0.56291 -0.05494,0 -0.2633,-0.20836 -0.463021,-0.46302 z m 51.734656,-0.39687 -0.504031,-0.59532 0.595312,0.50403 c 0.559435,0.47367 0.715751,0.6866 0.504031,0.6866 -0.05022,0 -0.318108,-0.26789 -0.595312,-0.59531 z M -50.948856,138.751 c -0.329108,-0.41964 -0.319749,-0.429 0.0999,-0.0999 0.440729,0.34564 0.580887,0.56291 0.363124,0.56291 -0.05494,0 -0.2633,-0.20836 -0.46302,-0.46302 z m -70.609994,-0.16604 c 0,-0.0549 0.20835,-0.2633 0.46302,-0.46302 0.41964,-0.32911 0.429,-0.31975 0.0999,0.0999 -0.34564,0.44073 -0.56291,0.58088 -0.56291,0.36312 z m 152.895409,-0.36312 c -0.329108,-0.41965 -0.319749,-0.42901 0.0999,-0.0999 0.440729,0.34564 0.580887,0.56292 0.363124,0.56292 -0.05494,0 -0.2633,-0.20836 -0.46302,-0.46302 z m -111.238295,-2.68811 c 0.229441,-0.37124 -0.137385,-1.10117 -0.454806,-0.90499 -0.176734,0.10922 -0.218821,0.01 -0.112871,-0.26611 0.09292,-0.24215 0.0466,-0.44027 -0.102944,-0.44027 -0.149543,0 -0.198311,-0.11907 -0.108374,-0.26459 0.08994,-0.14552 0.04117,-0.26458 -0.108373,-0.26458 -0.149542,0 -0.203361,-0.17859 -0.119599,-0.39687 0.08376,-0.21829 0.01347,-0.39688 -0.15621,-0.39688 -0.169678,0 -0.234921,-0.11906 -0.144984,-0.26458 0.08994,-0.14552 0.02468,-0.26459 -0.144984,-0.26459 -0.169677,0 -0.239974,-0.17859 -0.15621,-0.39687 0.08376,-0.21828 0.02424,-0.39688 -0.132292,-0.39688 -0.156524,0 -0.216056,-0.17859 -0.132291,-0.39687 0.08376,-0.21828 0.02424,-0.39688 -0.132292,-0.39688 -0.156525,0 -0.221623,-0.16408 -0.144664,-0.36463 0.07696,-0.20055 0.04288,-0.46844 -0.07573,-0.59531 -0.219181,-0.23445 -0.801328,-2.71807 -0.801328,-3.4187 0,-0.32889 1.373373,-0.3797 9.591146,-0.35487 5.54786,0.0168 9.144976,0.11774 8.532778,0.2395 -4.942353,0.98305 -10.291829,4.20828 -13.345819,8.04628 -0.761246,0.95667 -1.499923,1.7394 -1.641501,1.7394 -0.141579,0 -0.190474,-0.10832 -0.108651,-0.24071 z m 119.581282,-2.20669 -0.504029,-0.59531 0.595313,0.50403 c 0.327421,0.27721 0.595312,0.54511 0.595312,0.59531 0,0.21174 -0.212934,0.0554 -0.686596,-0.50403 z m -1.992987,-1.98437 c -0.329108,-0.41965 -0.319749,-0.429 0.0999,-0.0999 0.254661,0.19972 0.46302,0.40808 0.46302,0.46302 0,0.21777 -0.217273,0.0776 -0.562916,-0.36312 z m -4.058349,-2.86391 c -1.913572,-1.04039 -5.34857,-2.30141 -7.020401,-2.57728 -0.363802,-0.06 2.023401,-0.12536 5.304896,-0.14518 4.361952,-0.0263 6.063117,-0.12496 6.326198,-0.36676 0.39543,-0.36343 -0.427628,1.09792 -1.695072,3.00962 l -0.811289,1.22369 z m -116.801593,-3.70658 c 0.0127,-0.30822 0.07539,-0.37091 0.15985,-0.15985 0.07643,0.191 0.06703,0.4192 -0.02088,0.50712 -0.08792,0.0879 -0.150453,-0.0683 -0.138965,-0.34727 z m -0.21875,-3.68211 c 0.0029,-0.58209 0.05712,-0.78906 0.120407,-0.45994 0.06329,0.32912 0.06088,0.80537 -0.0053,1.05833 -0.06622,0.25297 -0.118004,-0.0163 -0.115067,-0.59839 z m -18.281197,-3.83646 c 0,-0.3638 0.0601,-0.51263 0.13345,-0.33073 0.0734,0.1819 0.0734,0.47956 0,0.66146 -0.0734,0.1819 -0.13345,0.0331 -0.13345,-0.33073 z m 18.520833,0 c 0,-0.3638 0.06005,-0.51263 0.133453,-0.33073 0.0734,0.1819 0.0734,0.47956 0,0.66146 -0.0734,0.1819 -0.133453,0.0331 -0.133453,-0.33073 z m 0.264583,-1.85209 c 0,-0.3638 0.06005,-0.51263 0.133453,-0.33073 0.0734,0.18191 0.0734,0.47956 0,0.66146 -0.0734,0.1819 -0.133453,0.0331 -0.133453,-0.33073 z m 127.508278,-7.82725 c 0.0127,-0.30823 0.07539,-0.37092 0.159851,-0.15985 0.07643,0.19099 0.06703,0.4192 -0.02088,0.50711 -0.08792,0.0879 -0.150452,-0.0684 -0.138964,-0.34726 z m 0.264583,-1.85208 c 0.0127,-0.30823 0.07539,-0.37092 0.159851,-0.15986 0.07643,0.191 0.06703,0.4192 -0.02087,0.50712 -0.08792,0.0879 -0.150453,-0.0684 -0.138965,-0.34726 z m 0.295275,-2.09462 c 0.0054,-0.43657 0.06469,-0.58313 0.131774,-0.3257 0.06708,0.25743 0.06267,0.61462 -0.0098,0.79375 -0.07248,0.17913 -0.127363,-0.0315 -0.121971,-0.46805 z m 18.490142,-0.28663 c 0.0127,-0.30823 0.07539,-0.37092 0.15985,-0.15986 0.07643,0.191 0.06703,0.4192 -0.02087,0.50712 -0.08792,0.0879 -0.150453,-0.0683 -0.138965,-0.34726 z m -141.57297,-0.47473 c 0,-0.0549 0.20836,-0.2633 0.463021,-0.46302 0.419645,-0.32911 0.429004,-0.31975 0.0999,0.0999 -0.345643,0.44073 -0.562917,0.58088 -0.562917,0.36312 z m 2.116667,-2.67823 c 0.341776,-0.363799 0.68094,-0.661455 0.7537,-0.661455 0.07276,0 -0.147341,0.297656 -0.489117,0.661455 -0.341775,0.36381 -0.680939,0.66146 -0.7537,0.66146 -0.07276,0 0.147342,-0.29765 0.489117,-0.66146 z M 45.493283,97.939025 c 0,-1.67349 0.04296,-2.358099 0.09547,-1.521354 0.05251,0.836744 0.05251,2.205963 0,3.042708 -0.05251,0.836741 -0.09547,0.152135 -0.09547,-1.521354 z m -119.956305,0.693854 c 0,-0.05494 0.208359,-0.2633 0.46302,-0.463021 0.419646,-0.329107 0.429004,-0.319749 0.0999,0.0999 -0.345644,0.44073 -0.562917,0.580887 -0.562917,0.363125 z m 2.513541,-2.281354 c 0.26339,-0.291042 0.538422,-0.529167 0.611182,-0.529167 0.07276,0 -0.08321,0.238125 -0.346598,0.529167 -0.26339,0.291041 -0.538422,0.529166 -0.611183,0.529166 -0.07276,0 0.08321,-0.238125 0.346599,-0.529166 z m 1.984375,-1.422813 c 0,-0.05494 0.20836,-0.2633 0.463021,-0.463021 0.419645,-0.329107 0.429003,-0.319749 0.0999,0.0999 -0.345644,0.44073 -0.562917,0.580888 -0.562917,0.363125 z m 133.63547,-1.906526 c 0.0127,-0.308227 0.07539,-0.37092 0.15985,-0.159854 0.07643,0.190995 0.06703,0.419201 -0.02087,0.507119 -0.08792,0.08792 -0.150453,-0.06835 -0.138965,-0.347265 z M 45.180222,92.250483 c 0.0054,-0.436562 0.06469,-0.583125 0.131774,-0.325694 0.06708,0.257432 0.06267,0.614619 -0.0098,0.79375 -0.07248,0.179131 -0.127363,-0.03149 -0.121971,-0.468056 z m -0.295275,-2.138714 c 0.0127,-0.308226 0.07539,-0.370919 0.159851,-0.159853 0.07643,0.190994 0.06703,0.4192 -0.02087,0.507119 -0.08792,0.08792 -0.150453,-0.06835 -0.138965,-0.347266 z m 18.520833,0 c 0.0127,-0.308226 0.07539,-0.370919 0.159851,-0.159853 0.07643,0.190994 0.06703,0.4192 -0.02088,0.507119 -0.08792,0.08792 -0.150452,-0.06835 -0.138964,-0.347266 z m -119.926745,-0.82015 c 0.190994,-0.07643 0.4192,-0.06703 0.507119,0.02088 0.08792,0.08792 -0.06835,0.150452 -0.347266,0.138964 -0.308226,-0.0127 -0.370919,-0.07539 -0.159853,-0.159851 z m 2.103215,-0.270973 c 0.329118,-0.06329 0.805368,-0.06088 1.058333,0.0053 0.252966,0.06622 -0.01633,0.118005 -0.598397,0.115068 -0.582084,-0.0029 -0.789054,-0.05712 -0.459936,-0.120407 z m 28.175039,-0.259839 c 0.254662,-0.06655 0.67138,-0.06655 0.926042,0 0.254661,0.06655 0.0463,0.121001 -0.463021,0.121001 -0.509323,0 -0.717682,-0.05445 -0.463021,-0.121001 z m 70.863075,-0.236538 c 0.0127,-0.308226 0.07539,-0.370919 0.159851,-0.159853 0.07643,0.190994 0.06703,0.4192 -0.02088,0.507119 -0.08792,0.08792 -0.150452,-0.06835 -0.138964,-0.347266 z m -68.332997,-0.0264 c 0.190995,-0.07643 0.419201,-0.06703 0.507119,0.02087 0.08792,0.08792 -0.06835,0.150453 -0.347265,0.138965 -0.308227,-0.0127 -0.37092,-0.07539 -0.159854,-0.159851 z m -63.461446,-3.060401 c 1.096423,-1.168186 1.333974,-1.378239 1.333974,-1.179568 0,0.04246 -0.565547,0.60801 -1.256771,1.25677 l -1.256771,1.179568 z m 78.4600137,-4.696354 c 1.0108406,-1.018646 1.8974223,-1.852084 1.9701827,-1.852084 0.07276,0 -0.6947588,0.833438 -1.7055994,1.852084 -1.0108406,1.018646 -1.897422,1.852083 -1.970183,1.852083 -0.07276,0 0.6947591,-0.833437 1.7055997,-1.852083 z M -57.050132,70.770786 c 0.190995,-0.07643 0.4192,-0.06703 0.507119,0.02088 0.08792,0.08792 -0.06835,0.150453 -0.347266,0.138964 -0.308226,-0.0127 -0.370919,-0.07539 -0.159853,-0.15985 z m 3.558976,-0.273703 c 0.402183,-0.06082 0.997495,-0.05919 1.322917,0.0036 0.325422,0.0628 -0.0036,0.112559 -0.731242,0.110575 -0.727604,-0.0021 -0.993857,-0.05337 -0.591675,-0.114187 z m 31.151049,-2.009598 c 0,-0.04554 0.386953,-0.432488 0.859896,-0.859896 l 0.859896,-0.777105 -0.777105,0.859896 c -0.724371,0.801545 -0.942687,0.981512 -0.942687,0.777105 z m 21.45213872,-2.717382 c 0.0127,-0.308226 0.0753904,-0.370919 0.15985066,-0.159853 0.0764302,0.190995 0.0670322,0.419198 -0.0208756,0.507119 -0.0879184,0.08792 -0.15045266,-0.06835 -0.13896445,-0.347266 z m 0.31041709,-2.359202 c 0.002937,-0.582083 0.0571209,-0.789054 0.12040658,-0.459936 0.0632857,0.329118 0.0608833,0.805368 -0.005345,1.058334 -0.0662226,0.252965 -0.11800416,-0.01633 -0.11506729,-0.598398 z M 33.188642,63.080172 c -0.329107,-0.419645 -0.319749,-0.429003 0.0999,-0.0999 0.44073,0.345644 0.580887,0.562917 0.363125,0.562917 -0.05494,0 -0.2633,-0.20836 -0.463021,-0.463021 z m -1.309193,-1.5875 -0.641432,-0.727604 0.727604,0.641432 c 0.400183,0.35279 0.727605,0.680212 0.727605,0.727604 0,0.207507 -0.21426,0.03862 -0.813777,-0.641432 z m -3.029778,-3.307292 -1.844987,-1.918229 1.918229,1.844987 c 1.055026,1.014744 1.918229,1.877947 1.918229,1.91823 0,0.194074 -0.277847,-0.06334 -1.991471,-1.844988 z m -3.598529,-3.307291 c -0.329107,-0.419645 -0.319749,-0.429003 0.0999,-0.0999 0.254662,0.19972 0.463021,0.40808 0.463021,0.463021 0,0.217762 -0.217273,0.0776 -0.562917,-0.363125 z m -1.322917,-1.058333 c -0.329107,-0.419645 -0.319749,-0.429004 0.0999,-0.0999 0.440729,0.345644 0.580887,0.562917 0.363124,0.562917 -0.05494,0 -0.2633,-0.208359 -0.463021,-0.46302 z M 37.298296,39.399964 36.794267,38.804652 37.38958,39.30868 c 0.327421,0.277215 0.595312,0.545106 0.595312,0.595312 0,0.211734 -0.212934,0.05542 -0.686596,-0.504028 z M -7.1777834,24.451733 c 1.7180798,-0.04616 4.4565172,-0.04601 6.0854166,3.44e-4 1.62889928,0.04634 0.22319716,0.08411 -3.1237819,0.08392 -3.3469791,-1.86e-4 -4.6797145,-0.0381 -2.9616347,-0.08426 z"
           id="path1352" /><path
           style="fill:#000000;stroke-width:0.264583"
           d="m -123.14635,281.65191 c -7.43637,-1.13958 -14.1972,-3.77221 -20.50521,-7.9846 -5.90528,-3.94345 -9.92493,-7.95775 -13.92603,-13.90749 -13.60865,-20.23645 -10.68554,-47.2534 6.96116,-64.3388 1.66295,-1.61005 3.91971,-3.59012 5.01502,-4.40013 2.16351,-1.59999 6.56035,-4.32056 7.42743,-4.59576 0.47675,-0.15132 0.51969,-0.31483 0.36771,-1.40007 -1.10424,-7.88526 -0.75627,-14.99425 1.06301,-21.71677 4.45287,-16.45408 17.11029,-29.7446 33.51187,-35.18804 l 1.791,-0.59441 -0.1725,-3.87934 c -0.80712,-18.15117 7.666962,-34.891186 22.651951,-44.747521 6.281486,-4.13163 13.771671,-6.951104 21.166666,-7.967609 1.351661,-0.185799 8.266136,-0.375402 17.330208,-0.475221 l 15.08125,-0.166082 1.322917,-0.650142 c 1.69056,-0.830823 3.546117,-2.68638 4.376941,-4.376941 l 0.650142,-1.322916 0.07266,-19.788928 0.07266,-19.788929 11.4367122,0.162582 C 0.22428711,24.6339 4.977479,24.816418 7.0005731,25.079712 16.130531,26.267923 25.158329,30.091536 33.383904,36.25405 48.842119,47.83518 59.94193,67.005395 63.168071,87.693565 c 0.86514,5.547852 0.861189,15.624165 -0.0083,21.093375 -0.744948,4.68601 -1.985941,9.59154 -3.578439,14.14524 -0.659665,1.88629 -1.17506,3.44295 -1.145326,3.45924 0.02973,0.0163 1.066093,0.23975 2.303021,0.49656 12.842742,2.66641 24.328781,10.57068 31.72198,21.82991 1.903174,2.89837 4.423727,7.97667 5.536406,11.15444 2.641857,7.54524 3.382797,16.78835 2.023767,25.2469 l -0.170044,1.05833 1.447694,0.70972 c 4.49603,2.20409 10.25699,6.7323 14.16145,11.13109 4.08112,4.59782 8.16581,11.62976 10.1995,17.55885 4.23688,12.3523 3.49189,25.99525 -2.04994,37.53992 -4.17851,8.70464 -9.85882,15.31994 -17.62707,20.52848 -6.326155,4.24165 -13.454242,6.98023 -20.9365,8.04372 -4.108132,0.58392 -204.37303,0.54791 -208.19266,-0.0374 z M 83.221365,263.42419 c 12.440973,-2.01759 22.598935,-11.31401 25.862045,-23.6685 0.89984,-3.40693 1.13736,-10.0287 0.49268,-13.73548 -2.13538,-12.27792 -11.439448,-22.37105 -23.569324,-25.56821 -2.732087,-0.72012 -6.751478,-1.17756 -10.346795,-1.17756 -1.367023,0 -2.485496,-0.0718 -2.485496,-0.15956 0,-0.0878 0.53967,-0.7598 1.19925,-1.49341 1.463913,-1.62822 3.744251,-5.04266 4.864629,-7.28399 3.615373,-7.23256 4.214204,-16.51771 1.565143,-24.26825 -1.003247,-2.93529 -1.727041,-4.38955 -3.621246,-7.27604 -3.814921,-5.81327 -10.365724,-10.82279 -17.092726,-13.07109 -2.976436,-0.99478 -5.724896,-1.41782 -10.604672,-1.63226 l -4.242747,-0.18645 -0.738346,-2.33014 c -1.282822,-4.04844 -4.653698,-8.9322 -7.551084,-10.94008 -0.596448,-0.41334 -1.084451,-0.85069 -1.084451,-0.97188 0,-0.12119 0.520883,-1.02773 1.157518,-2.01454 3.88488,-6.02168 6.979931,-14.55556 8.135477,-22.43168 0.572722,-3.90363 0.435946,-12.032092 -0.270732,-16.08943 C 42.076364,72.968545 33.125359,59.390378 19.407692,50.469684 14.767081,47.451862 8.009768,44.619014 2.3765719,43.329774 L -0.24739882,42.72924 -0.39921673,53.73153 c -0.16573764,12.011149 -0.29079825,13.171895 -1.85755227,17.240551 -1.418373,3.683339 -3.2773566,6.458125 -6.4566322,9.6374 -3.1794158,3.179413 -5.9545038,5.038558 -9.6373998,6.456481 -4.280342,1.647942 -4.497528,1.666513 -21.980972,1.87955 -10.063226,0.122624 -16.449413,0.303128 -17.197916,0.486095 -7.05585,1.724769 -11.83554,4.290687 -16.35147,8.778086 -9.242379,9.183997 -11.973869,23.120927 -6.938245,35.401147 l 1.056606,2.57671 -1.030719,1.97626 c -0.566896,1.08694 -1.285663,2.82174 -1.597258,3.85511 l -0.566539,1.87886 -4.153374,0.18244 c -5.244068,0.23035 -7.192896,0.53028 -10.528799,1.62045 -15.304983,5.00162 -24.729853,20.16658 -22.205633,35.72963 0.98967,6.10177 3.783,12.00648 7.65919,16.19049 l 1.53199,1.65365 h -2.6463 c -6.35377,0 -11.30313,0.9908 -15.88716,3.18042 -3.59105,1.71531 -6.05965,3.3801 -8.61804,5.81189 -7.67987,7.29987 -11.27563,18.1255 -9.55146,28.75622 1.89452,11.68103 10.20698,21.44062 21.46831,25.20579 4.95729,1.65744 -2.47155,1.54774 106.723483,1.57602 88.646596,0.023 100.162094,-0.0199 102.386472,-0.38059 z M -43.662949,247.20337 c -6.716659,-4.35116 -12.258367,-10.39054 -15.833497,-17.25541 -3.218701,-6.18046 -4.764092,-11.74883 -5.300276,-19.098 l -0.168905,-2.31511 h 46.0513 46.051303 l -2.23e-4,0.72761 c -1.21e-4,0.40018 -0.123817,2.03099 -0.274881,3.62402 -0.846878,8.93073 -4.352065,17.53536 -9.985626,24.51301 -3.00973,3.72781 -8.6814602,8.67414 -12.1707931,10.61419 l -1.2902432,0.71736 -0.7153884,-1.83157 c -2.86210895,-7.32774 -8.7009762,-12.59191 -16.1763863,-14.58424 -3.055104,-0.81423 -7.896667,-0.813 -10.977036,0.003 -5.939348,1.57296 -11.123909,5.47092 -14.15456,10.64194 -0.993169,1.69457 -2.252779,4.57977 -2.252779,5.16008 0,0.72671 -0.535733,0.55144 -2.802009,-0.91669 z m -20.75055,-66.79165 c -2.790611,-0.79107 -5.787594,-3.23517 -7.529447,-6.14041 -1.955924,-3.26228 -1.991698,-3.55733 -1.984441,-16.36589 0.0038,-6.7264 0.116343,-11.89195 0.273961,-12.57564 0.755552,-3.2773 3.857963,-7.11198 7.061752,-8.72855 5.649267,-2.85052 12.159398,-1.71438 16.250629,2.83606 1.450081,1.61284 2.720864,3.95803 3.254145,6.00543 0.556239,2.13555 0.594201,23.33476 0.04547,25.38901 -1.113674,4.16913 -4.327163,7.43109 -8.906727,9.04107 -2.359102,0.82936 -6.50884,1.09354 -8.465338,0.53892 z m 83.514433,0.0481 c -1.471506,-0.34556 -4.469481,-1.98189 -5.837856,-3.18638 -1.607894,-1.41533 -3.213201,-3.90284 -3.8507327,-5.96692 C 8.9142884,169.694 8.880726,168.85565 8.880726,158.02713 c 0,-12.58372 0.075687,-13.3771 1.513041,-15.8605 1.035905,-1.7898 3.661032,-4.28836 5.547643,-5.28018 1.910596,-1.00443 5.205023,-1.90746 6.938409,-1.90188 5.475338,0.0176 10.803575,3.98934 12.772999,9.52109 0.604247,1.69722 0.612282,1.87083 0.612282,13.22917 0,11.14546 -0.01855,11.56828 -0.586173,13.37244 -1.463641,4.65197 -5.098772,8.04341 -9.881772,9.21933 -1.868591,0.4594 -5.038633,0.52247 -6.696221,0.13322 z"
           id="path1350" /></g></g></g></svg>
