<?xml version="1.0" encoding="UTF-8" standalone="no"?>
<!-- Created with Inkscape (http://www.inkscape.org/) -->

<svg
   width="100mm"
   height="100mm"
   viewBox="0 0 100 99.999999"
   version="1.1"
   id="svg5"
   xml:space="preserve"
   inkscape:version="1.2 (dc2aedaf03, 2022-05-15)"
   sodipodi:docname="toilet-win.svg"
   inkscape:export-filename="toilet-paper-win512x512.png"
   inkscape:export-xdpi="130.048"
   inkscape:export-ydpi="130.048"
   xmlns:inkscape="http://www.inkscape.org/namespaces/inkscape"
   xmlns:sodipodi="http://sodipodi.sourceforge.net/DTD/sodipodi-0.dtd"
   xmlns="http://www.w3.org/2000/svg"
   xmlns:svg="http://www.w3.org/2000/svg"><sodipodi:namedview
     id="namedview7"
     pagecolor="#ffffff"
     bordercolor="#000000"
     borderopacity="0.25"
     inkscape:showpageshadow="2"
     inkscape:pageopacity="0.0"
     inkscape:pagecheckerboard="0"
     inkscape:deskcolor="#d1d1d1"
     inkscape:document-units="mm"
     showgrid="false"
     inkscape:zoom="1.4912879"
     inkscape:cx="161.27"
     inkscape:cy="144.17069"
     inkscape:window-width="1920"
     inkscape:window-height="1017"
     inkscape:window-x="-8"
     inkscape:window-y="-8"
     inkscape:window-maximized="1"
     inkscape:current-layer="g302" /><defs
     id="defs2" /><g
     inkscape:label="Layer 1"
     inkscape:groupmode="layer"
     id="layer1"
     transform="translate(-10.515409,-92.374196)"><g
       id="g302"
       transform="translate(36.548387,69.903226)"><path
         style="fill:#ffffff;stroke-width:8.41826"
         d="m 3.4867754,28.396525 -8.3837269,11.01861 -3.113955,26.109321 v 37.607004 l -5.7488415,10.06046 7.4255875,3.35349 49.3442185,-0.95813 6.467447,-8.14418 L 49.23797,91.154703 61.693791,29.354665 Z"
         id="path396" /><g
         id="g327"
         transform="matrix(0.66713504,0,0,0.66713504,-17.109761,23.920334)"><path
           style="fill:#fdfdfd;stroke-width:0.264583"
           d="m 2.9383183,131.54373 c 3.3250959,-3.3251 5.7417229,-7.88311 6.2831239,-11.85062 0.139002,-1.01865 0.308523,-2.23904 0.376714,-2.71198 l 0.123981,-0.8599 H 48.642722 87.563307 l -0.166357,1.91823 c -0.425937,4.91143 -2.661062,9.47067 -6.744893,13.75834 l -1.44903,1.52135 H 40.182961 1.1628953 Z M 9.6983802,52.290502 c 5.29e-4,-7.419739 1.4375738,-16.7797 3.6254348,-23.614062 2.778633,-8.679785 6.196724,-13.99096 10.323166,-16.040562 l 1.264719,-0.628187 39.158334,-0.05021 c 34.4058,-0.04411 39.032586,-0.0038 38.122266,0.332071 -2.807396,1.035844 -5.613796,4.201305 -7.960106,8.978553 -3.846246,7.831219 -5.99121,17.695849 -6.630443,30.493228 l -0.175114,3.505729 H 48.562397 9.6981582 Z"
           id="path318" /><path
           style="fill:#f1f1f1;stroke-width:0.264583"
           d="m 4.885866,133.38574 c 2.2281862,-0.0443 5.800061,-0.0442 7.9375,2.2e-4 2.137437,0.0444 0.314375,0.0807 -4.0512498,0.0806 -4.3656249,-1.2e-4 -6.1144388,-0.0365 -3.8862502,-0.0808 z m -2.3314581,-1.4894 c 0,-0.0549 0.2083594,-0.2633 0.4630209,-0.46302 0.419645,-0.32911 0.4290033,-0.31975 0.099896,0.0999 -0.3456438,0.44073 -0.562917,0.58089 -0.562917,0.36313 z M 9.4335752,85.694145 V 55.267064 H 48.447528 87.461482 l 0.108683,-1.653646 c 0.05978,-0.909505 0.06583,-0.522552 0.01347,0.859896 -0.05237,1.382448 -0.09584,15.818771 -0.0966,32.080731 l -0.0014,29.567185 H 48.459617 9.4335752 Z M 87.822305,48.123314 c 0,-0.654843 0.0516,-0.922734 0.114663,-0.595312 0.06307,0.327422 0.06307,0.863203 0,1.190625 -0.06306,0.327422 -0.114663,0.05953 -0.114663,-0.595313 z m 0.234297,-3.174999 c 0,-0.363802 0.06005,-0.512631 0.133453,-0.33073 0.0734,0.181901 0.0734,0.479558 0,0.661459 -0.0734,0.181901 -0.133453,0.03307 -0.133453,-0.330729 z m 0.264583,-2.38125 c 0,-0.363802 0.06005,-0.512631 0.133453,-0.330729 0.0734,0.181901 0.0734,0.479557 0,0.661458 -0.0734,0.181901 -0.133453,0.03307 -0.133453,-0.330729 z m 0.264583,-1.852084 c 0,-0.363802 0.06005,-0.51263 0.133453,-0.330729 0.0734,0.181901 0.0734,0.479558 0,0.661459 -0.0734,0.181901 -0.133453,0.03307 -0.133453,-0.33073 z m 0.264584,-1.852083 c 0,-0.363802 0.06005,-0.51263 0.133453,-0.330729 0.0734,0.181901 0.0734,0.479557 0,0.661458 -0.0734,0.181901 -0.133453,0.03307 -0.133453,-0.330729 z m 8.954062,-23.366123 c 0,-0.04554 0.38695,-0.432488 0.85989,-0.859896 l 0.8599,-0.777105 -0.77711,0.859896 c -0.72437,0.801544 -0.94268,0.981511 -0.94268,0.777105 z"
           id="path316" /><path
           style="fill:#cbcbcb;stroke-width:0.264583"
           d="m 32.121596,133.38534 c 8.62211,-0.0387 22.731016,-0.0387 31.353126,0 8.622109,0.0387 1.567656,0.0704 -15.676563,0.0704 -17.244219,0 -24.298673,-0.0317 -15.676563,-0.0704 z M 87.637523,83.180605 c 0.02833,-22.253019 0.139673,-34.068347 0.340349,-36.115624 1.776127,-18.119801 6.952729,-31.100957 13.734258,-34.440853 1.82701,-0.899803 4.68348,-0.867223 6.67561,0.07614 3.8382,1.817555 7.2099,6.955895 9.90803,15.099447 6.12453,18.485228 5.15549,44.91242 -2.22514,60.6823 -1.53192,3.27318 -2.73945,5.09373 -4.69156,7.0733 -4.73677,4.803395 -10.31839,3.92504 -14.778796,-2.32567 -2.311904,-3.23984 -4.862448,-9.42577 -6.439685,-15.6184 -0.748276,-2.93791 -1.845561,-9.76418 -2.081881,-12.951472 -0.11093,-1.496129 -0.258554,9.138642 -0.339731,24.473952 l -0.143555,27.119805 z m 19.604957,-13.52517 c 2.59044,-1.93025 4.53061,-9.022653 4.2523,-15.544526 -0.31569,-7.39799 -2.66657,-13.274534 -5.56746,-13.917149 -1.35819,-0.300871 -2.55085,0.07314 -3.55224,1.113946 -4.285146,4.453837 -5.064016,18.632778 -1.41791,25.812479 1.6495,3.24809 4.03651,4.21092 6.28531,2.53525 z M 9.5182602,53.679564 c 0,-0.945885 0.04802,-1.332838 0.106714,-0.859896 0.05869,0.472943 0.05869,1.246849 0,1.719792 -0.05869,0.472943 -0.106714,0.08599 -0.106714,-0.859896 z m 0.221673,-6.349999 c 0,-0.363803 0.06005,-0.512631 0.133453,-0.33073 0.0734,0.181901 0.0734,0.479558 0,0.661459 -0.0734,0.181901 -0.133453,0.03307 -0.133453,-0.330729 z M 20.281491,14.918107 c 0.341776,-0.363802 0.68094,-0.661458 0.753701,-0.661458 0.07276,0 -0.147342,0.297656 -0.489117,0.661458 -0.341776,0.363802 -0.68094,0.661459 -0.7537,0.661459 -0.07276,0 0.147341,-0.297657 0.489116,-0.661459 z"
           id="path314" /><path
           style="fill:#727271;stroke-width:0.264583"
           d="m -0.15757131,142.13975 c 0.181901,-0.0734 0.4795573,-0.0734 0.6614583,0 0.1819011,0.0734 0.033073,0.13346 -0.3307291,0.13346 -0.3638021,0 -0.5126303,-0.0601 -0.3307292,-0.13346 z m -5.52385459,-2.66904 c -0.3291072,-0.41964 -0.3197489,-0.429 0.099896,-0.0999 0.2546615,0.19972 0.4630209,0.40808 0.4630209,0.46302 0,0.21776 -0.2172732,0.0776 -0.562917,-0.36313 z m 92.2410439,-1.38906 c 1.010841,-1.01865 1.897423,-1.85208 1.970183,-1.85208 0.07276,0 -0.694759,0.83343 -1.7056,1.85208 -1.01084,1.01865 -1.897422,1.85208 -1.970182,1.85208 -0.07276,0 0.694758,-0.83343 1.705599,-1.85208 z m -6.085417,-6.08542 c 0.568389,-0.58208 1.092968,-1.05833 1.165728,-1.05833 0.07276,0 -0.332756,0.47625 -0.901144,1.05833 -0.568389,0.58209 -1.092968,1.05834 -1.165728,1.05834 -0.07276,0 0.332756,-0.47625 0.901144,-1.05834 z m -76.729168,-1.5875 c 0.26339,-0.29104 0.5384218,-0.52916 0.6111822,-0.52916 0.07276,0 -0.083209,0.23812 -0.3465989,0.52916 -0.2633901,0.29104 -0.5384218,0.52917 -0.6111822,0.52917 -0.07276,0 0.083209,-0.23813 0.3465989,-0.52917 z m 92.538601,-13.09687 c 0.003,-0.58208 0.0571,-0.78905 0.12041,-0.45994 0.0633,0.32912 0.0609,0.80537 -0.005,1.05834 -0.0662,0.25296 -0.118,-0.0163 -0.11507,-0.5984 z m -8.756199,-0.39688 c 0,-0.3638 0.06006,-0.51263 0.133453,-0.33073 0.0734,0.18191 0.0734,0.47956 0,0.66146 -0.0734,0.1819 -0.133453,0.0331 -0.133453,-0.33073 z M 118.5742,100.7754 c 0.26339,-0.29104 0.53842,-0.52917 0.61118,-0.52917 0.0728,0 -0.0832,0.23813 -0.3466,0.52917 -0.26339,0.29104 -0.53842,0.52917 -0.61118,0.52917 -0.0728,0 0.0832,-0.23813 0.3466,-0.52917 z M 87.786613,80.336335 c 0.02479,-12.49625 0.109633,-17.481077 0.266774,-15.676563 0.762479,8.755893 2.96327,17.618833 5.934438,23.898923 2.389939,5.05158 5.297919,8.4535 8.171215,9.55917 l 1.33391,0.51329 -7.871352,0.0138 -7.871355,0.0138 z m 22.850087,15.94114 c 0.26339,-0.29104 0.53842,-0.52916 0.61118,-0.52916 0.0728,0 -0.0832,0.23812 -0.3466,0.52916 -0.26339,0.29105 -0.53842,0.52917 -0.61118,0.52917 -0.0728,0 0.0832,-0.23812 0.3466,-0.52917 z m 1.32291,-1.32291 c 0.26339,-0.29104 0.53843,-0.52917 0.61119,-0.52917 0.0728,0 -0.0832,0.23813 -0.3466,0.52917 -0.26339,0.29104 -0.53842,0.52916 -0.61118,0.52916 -0.0728,0 0.0832,-0.23812 0.34659,-0.52916 z m -4.36562,-25.79688 c 0.34178,-0.3638 0.68094,-0.66145 0.7537,-0.66145 0.0728,0 -0.14734,0.29765 -0.48912,0.66145 -0.34177,0.36381 -0.68094,0.66146 -0.7537,0.66146 -0.0728,0 0.14734,-0.29765 0.48912,-0.66146 z m 13.77922,-0.022 c 0.0127,-0.30822 0.0754,-0.37092 0.15985,-0.15985 0.0764,0.191 0.067,0.4192 -0.0209,0.50712 -0.0879,0.0879 -0.15046,-0.0683 -0.13897,-0.34727 z m 8.99584,-1.5875 c 0.0127,-0.30822 0.0754,-0.37092 0.15985,-0.15985 0.0764,0.191 0.067,0.4192 -0.0209,0.50712 -0.0879,0.0879 -0.15045,-0.0683 -0.13896,-0.34727 z m -8.73125,-0.52916 c 0.0127,-0.30823 0.0754,-0.37092 0.15985,-0.15986 0.0764,0.191 0.067,0.4192 -0.0209,0.50712 -0.0879,0.0879 -0.15045,-0.0683 -0.13896,-0.34726 z m 8.99583,-2.116669 c 0.0127,-0.308227 0.0754,-0.37092 0.15985,-0.159854 0.0764,0.190995 0.067,0.419201 -0.0209,0.507119 -0.0879,0.08792 -0.15045,-0.06835 -0.13896,-0.347265 z m -8.71036,-0.374835 c 0,-0.363803 0.0601,-0.512631 0.13345,-0.33073 0.0734,0.181901 0.0734,0.479558 0,0.661459 -0.0734,0.181901 -0.13345,0.03307 -0.13345,-0.330729 z m 8.99583,-3.439584 c 0,-0.363802 0.0601,-0.51263 0.13345,-0.330729 0.0734,0.181901 0.0734,0.479557 0,0.661459 -0.0734,0.181901 -0.13345,0.03307 -0.13345,-0.33073 z m -8.69735,-1.190625 c 0.002,-0.727604 0.0534,-0.993857 0.11418,-0.591674 0.0608,0.402182 0.0592,0.997495 -0.004,1.322917 -0.0628,0.325421 -0.11255,-0.0037 -0.11057,-0.731243 z M 98.639934,58.177521 c 0,-0.363802 0.0601,-0.51263 0.13345,-0.330729 0.0734,0.181901 0.0734,0.479557 0,0.661458 -0.0734,0.181901 -0.13345,0.03307 -0.13345,-0.330729 z m 12.699996,-0.264584 c 0,-0.363802 0.0601,-0.51263 0.13345,-0.330729 0.0734,0.181901 0.0734,0.479558 0,0.661459 -0.0734,0.181901 -0.13345,0.03307 -0.13345,-0.33073 z m 0.0196,-5.027083 c 0,-0.509323 0.0545,-0.717682 0.121,-0.463021 0.0666,0.254662 0.0666,0.671381 0,0.926042 -0.0665,0.254662 -0.121,0.0463 -0.121,-0.463021 z M 98.649724,52.488979 c 0.005,-0.436562 0.0647,-0.583125 0.13178,-0.325694 0.0671,0.257432 0.0627,0.614619 -0.01,0.79375 -0.0725,0.179131 -0.12736,-0.03149 -0.12197,-0.468056 z M 0.76904449,51.695189 c 0.00294,-0.582083 0.057121,-0.789053 0.1204066,-0.459935 0.063286,0.329117 0.060883,0.805367 -0.00534,1.058333 -0.066223,0.252965 -0.1180041,-0.01632 -0.1150666,-0.598398 z M 9.5056342,51.033731 c 0,-0.654844 0.0516,-0.922734 0.114662,-0.595312 0.06307,0.327421 0.06307,0.863203 0,1.190625 -0.06306,0.327421 -0.114662,0.05953 -0.114662,-0.595313 z M 122.22174,50.901439 c 0.002,-0.727604 0.0534,-0.993857 0.11419,-0.591674 0.0608,0.402182 0.0592,0.997495 -0.004,1.322917 -0.0628,0.325421 -0.11256,-0.0037 -0.11057,-0.731243 z m -11.16728,-0.286631 c 0.0127,-0.308226 0.0754,-0.370919 0.15985,-0.159853 0.0764,0.190995 0.067,0.419201 -0.0209,0.507119 -0.0879,0.08792 -0.15045,-0.06835 -0.13896,-0.347266 z M 98.904514,50.239981 c 0,-0.363802 0.0601,-0.51263 0.13346,-0.330729 0.0734,0.181901 0.0734,0.479557 0,0.661458 -0.0734,0.181901 -0.13346,0.03307 -0.13346,-0.330729 z m 32.014586,-0.79375 c 0,-0.363802 0.0601,-0.51263 0.13345,-0.330729 0.0734,0.181901 0.0734,0.479557 0,0.661458 -0.0734,0.181901 -0.13345,0.03307 -0.13345,-0.330729 z m -20.12922,-0.418923 c 0.0127,-0.308226 0.0754,-0.370919 0.15985,-0.159853 0.0764,0.190995 0.067,0.419201 -0.0209,0.507119 -0.0879,0.08792 -0.15045,-0.06835 -0.13896,-0.347266 z M 99.148214,48.762725 c 0.0127,-0.308226 0.0754,-0.370919 0.15985,-0.159853 0.0764,0.190995 0.067,0.4192 -0.0209,0.507119 -0.0879,0.08792 -0.15046,-0.06835 -0.13897,-0.347266 z M 0.98779669,46.910642 c 0.0127,-0.308227 0.07539,-0.37092 0.15985071,-0.159854 0.07643,0.190995 0.067032,0.419201 -0.020876,0.507119 -0.087918,0.08792 -0.15045271,-0.06835 -0.13896451,-0.347265 z M 9.7190472,46.381475 c 0.0127,-0.308226 0.07539,-0.370919 0.15985,-0.159853 0.07643,0.190995 0.06703,0.419198 -0.02088,0.507119 -0.08792,0.08792 -0.150453,-0.06835 -0.138965,-0.347266 z M 121.92327,46.271231 c 0,-0.363802 0.0601,-0.51263 0.13345,-0.330729 0.0734,0.181901 0.0734,0.479557 0,0.661458 -0.0734,0.181901 -0.13345,0.03307 -0.13345,-0.330729 z m 8.71036,-0.683506 c 0.0127,-0.308226 0.0754,-0.370919 0.15985,-0.159853 0.0764,0.190995 0.067,0.419198 -0.0209,0.507119 -0.0879,0.08792 -0.15045,-0.06835 -0.13896,-0.347266 z M 1.2523801,44.000225 c 0.0127,-0.308226 0.07539,-0.370919 0.1598506,-0.159853 0.07643,0.190995 0.067032,0.419198 -0.020876,0.507119 -0.087918,0.08792 -0.1504526,-0.06835 -0.1389644,-0.347266 z m 8.7312501,-0.264583 c 0.0127,-0.308226 0.07539,-0.370919 0.1598508,-0.159853 0.07643,0.190994 0.06703,0.419197 -0.02088,0.507119 -0.08792,0.08792 -0.1504528,-0.06835 -0.1389638,-0.347266 z m 111.6541698,0 c 0.0127,-0.308226 0.0754,-0.370919 0.15985,-0.159853 0.0764,0.190994 0.067,0.419197 -0.0209,0.507119 -0.0879,0.08792 -0.15045,-0.06835 -0.13896,-0.347266 z m 8.73125,-0.79375 c 0.0127,-0.308226 0.0754,-0.370919 0.15985,-0.159853 0.0764,0.190994 0.067,0.419198 -0.0209,0.507119 -0.0879,0.08792 -0.15045,-0.06835 -0.13896,-0.347266 z m -28.4636,-1.168577 c 0.26339,-0.291042 0.53842,-0.529167 0.61118,-0.529167 0.0728,0 -0.0832,0.238125 -0.3466,0.529167 -0.26339,0.291041 -0.53842,0.529166 -0.61118,0.529166 -0.0728,0 0.0832,-0.238125 0.3466,-0.529166 z m 5.91937,-0.198438 c -0.3291,-0.419645 -0.31975,-0.429003 0.0999,-0.0999 0.44073,0.345644 0.58089,0.562917 0.36312,0.562917 -0.0549,0 -0.2633,-0.208359 -0.46302,-0.463021 z m 13.54839,0.0441 c 0.0127,-0.308226 0.0754,-0.370919 0.15985,-0.159853 0.0764,0.190995 0.067,0.419198 -0.0209,0.507119 -0.0879,0.08792 -0.15046,-0.06835 -0.13897,-0.347266 z m -0.26458,-1.852083 c 0.0127,-0.308226 0.0754,-0.370919 0.15985,-0.159853 0.0764,0.190995 0.067,0.419198 -0.0209,0.507119 -0.0879,0.08792 -0.15045,-0.06835 -0.13896,-0.347266 z m -8.78589,-23.856599 c -0.32911,-0.419645 -0.31975,-0.429004 0.0999,-0.0999 0.44073,0.345643 0.58088,0.562917 0.36312,0.562917 -0.0549,0 -0.2633,-0.20836 -0.46302,-0.463021 z m -1.85208,-1.852083 c -0.32911,-0.419645 -0.31975,-0.429004 0.0999,-0.0999 0.44073,0.345644 0.58089,0.562917 0.36313,0.562917 -0.0549,0 -0.2633,-0.208359 -0.46302,-0.46302 z M 12.343991,10.452586 c 0,-0.05494 0.20836,-0.2633 0.463021,-0.4630198 0.419645,-0.329108 0.429004,-0.319749 0.0999,0.0999 -0.345644,0.440729 -0.562917,0.580887 -0.562917,0.363124 z m 106.205069,-0.7599988 -0.50403,-0.595313 0.59531,0.504029 c 0.32743,0.277214 0.59532,0.5451048 0.59532,0.5953118 0,0.211733 -0.21294,0.05542 -0.6866,-0.5040278 z"
           id="path310" /><path
           style="fill:#8d552e;stroke-width:0.264583"
           d="m 103.30529,69.938045 c -2.18226,-1.18451 -4.054716,-6.281255 -4.587936,-12.488168 l -0.18752,-2.182813 h 6.547536 6.54754 l -0.18111,2.050521 c -0.27219,3.081639 -1.36487,7.666265 -2.26337,9.49653 -0.4388,0.89384 -1.27326,2.0547 -1.85435,2.57969 -0.8715,0.78734 -1.25333,0.95265 -2.18025,0.94391 -0.61804,-0.006 -1.44628,-0.18567 -1.84054,-0.39967 z"
           id="path308" /><path
           style="fill:#603c2f;stroke-width:0.264583"
           d="m 21.009096,142.11657 c 11.241484,-0.0382 29.636641,-0.0382 40.878126,0 11.241484,0.0382 2.043906,0.0694 -20.439063,0.0694 -22.48297,0 -31.6805478,-0.0312 -20.439063,-0.0694 z m -28.9766383,-8.79742 c 0,-0.50932 0.054451,-0.71768 0.1210019,-0.46302 0.066548,0.25466 0.066548,0.67138 0,0.92604 -0.066551,0.25466 -0.1210019,0.0463 -0.1210019,-0.46302 z m 9.7282002,-0.87654 c 0,-0.0455 0.3869531,-0.43249 0.8598959,-0.8599 l 0.8598958,-0.7771 -0.7771051,0.85989 c -0.7243709,0.80155 -0.9426866,0.98152 -0.9426866,0.77711 z M 81.664826,130.838 c 0,-0.0549 0.20836,-0.2633 0.463021,-0.46302 0.419645,-0.3291 0.429004,-0.31975 0.0999,0.0999 -0.345643,0.44073 -0.562917,0.58089 -0.562917,0.36312 z m -87.3125016,-3.175 c 0,-0.0549 0.2083594,-0.2633 0.4630208,-0.46302 0.4196451,-0.3291 0.4290034,-0.31975 0.099896,0.0999 -0.3456437,0.44073 -0.5629169,0.58089 -0.5629168,0.36312 z m 1.3229167,-1.32291 c 0,-0.0549 0.2083594,-0.2633 0.4630208,-0.46302 0.4196451,-0.32911 0.4290034,-0.31975 0.099896,0.0999 -0.3456437,0.44073 -0.5629169,0.58089 -0.5629169,0.36313 z m 13.5146391,-8.25653 c 0.0127,-0.30823 0.07539,-0.37092 0.159851,-0.15985 0.07643,0.19099 0.06703,0.4192 -0.02088,0.50712 -0.08792,0.0879 -0.150453,-0.0684 -0.138964,-0.34727 z m 78.3166688,-0.26458 c 0.0127,-0.30823 0.07539,-0.37092 0.15985,-0.15986 0.07643,0.191 0.06703,0.4192 -0.02088,0.50712 -0.08792,0.0879 -0.150453,-0.0684 -0.138965,-0.34726 z M 0.83042259,84.503525 c -8e-6,-17.60802 0.031623,-24.850283 0.070292,-16.09391 0.038669,8.75637 0.038677,23.16293 1.59e-5,32.014585 -0.038658,8.85165 -0.070297,1.68735 -0.0703079,-15.920675 z M 96.325724,111.8879 c 0,-2.54661 0.0397,-3.58841 0.0882,-2.3151 0.0485,1.2733 0.0485,3.3569 0,4.6302 -0.0485,1.27331 -0.0882,0.23151 -0.0882,-2.3151 z m 20.264096,-9.07862 c 0,-0.0455 0.38696,-0.43249 0.8599,-0.8599 l 0.85989,-0.7771 -0.7771,0.85989 c -0.72437,0.80155 -0.94269,0.98151 -0.94269,0.77711 z m -11.95586,-4.066705 c 0.191,-0.0764 0.4192,-0.067 0.50712,0.0209 0.0879,0.0879 -0.0683,0.15046 -0.34726,0.13897 -0.30823,-0.0127 -0.37092,-0.0754 -0.15986,-0.15985 z m 25.99967,-34.634017 c 0.0127,-0.308227 0.0754,-0.37092 0.15985,-0.159853 0.0764,0.190994 0.067,0.4192 -0.0209,0.507118 -0.0879,0.08792 -0.15045,-0.06835 -0.13896,-0.347265 z m -8.44578,-2.491494 c 0,-0.363802 0.06,-0.51263 0.13345,-0.330729 0.0734,0.181901 0.0734,0.479557 0,0.661458 -0.0734,0.181901 -0.13345,0.03307 -0.13345,-0.330729 z m 8.76154,-2.116667 c 0,-0.654843 0.0516,-0.922734 0.11466,-0.595312 0.0631,0.327422 0.0631,0.863203 0,1.190625 -0.0631,0.327422 -0.11466,0.05953 -0.11466,-0.595313 z M 98.718144,53.216543 c 0.25104,-2.825837 1.10069,-6.935279 1.805746,-8.733734 0.36592,-0.933383 1.10575,-2.040731 1.95988,-2.93348 l 1.37208,-1.434105 1.39943,0.134469 c 1.25367,0.120462 1.51389,0.260898 2.49845,1.348388 0.60447,0.667658 1.40706,1.98333 1.78352,2.923715 0.76603,1.913511 1.62245,5.925261 1.88438,8.827039 l 0.17315,1.918229 h -6.5294 -6.529396 z m 32.231246,-2.182812 c 0,-0.654844 0.0516,-0.922734 0.11466,-0.595312 0.0631,0.327421 0.0631,0.863203 0,1.190625 -0.0631,0.327421 -0.11466,0.05953 -0.11466,-0.595313 z M 9.4544632,49.556475 c 0.0127,-0.308226 0.07539,-0.370919 0.159851,-0.159853 0.07643,0.190994 0.06703,0.4192 -0.02088,0.507119 -0.08792,0.08792 -0.150452,-0.06835 -0.138964,-0.347266 z M 122.18785,49.181648 c 0,-0.363802 0.06,-0.51263 0.13345,-0.330729 0.0734,0.181901 0.0734,0.479557 0,0.661458 -0.0734,0.181901 -0.13345,0.03307 -0.13345,-0.330729 z M 1.0086829,47.858731 c 0,-0.363802 0.060055,-0.51263 0.1334532,-0.330729 0.073398,0.181901 0.073398,0.479557 0,0.661458 -0.073398,0.181901 -0.1334532,0.03307 -0.1334532,-0.330729 z M 130.63363,46.381475 c 0.0127,-0.308226 0.0754,-0.370919 0.15985,-0.159853 0.0764,0.190995 0.067,0.419198 -0.0209,0.507119 -0.0879,0.08792 -0.15045,-0.06835 -0.13896,-0.347266 z M 46.297564,11.676983 c 10.889099,-0.03825 28.629412,-0.03825 39.422917,10e-6 10.793503,0.03826 1.884241,0.06955 -19.798363,0.06955 -21.682605,-8e-6 -30.513653,-0.03131 -19.624554,-0.06956 z m 70.937076,-3.3073128 -0.77711,-0.859896 0.8599,0.777105 c 0.47294,0.427408 0.85989,0.814361 0.85989,0.859896 0,0.204407 -0.21831,0.02445 -0.94268,-0.777105 z M 14.725241,8.0389412 c 0.341776,-0.363802 0.68094,-0.661458 0.7537,-0.661458 0.07276,0 -0.147341,0.297656 -0.489116,0.661458 -0.341776,0.363802 -0.68094,0.661458 -0.7537,0.661458 -0.07276,0 0.147341,-0.297656 0.489116,-0.661458 z"
           id="path306" /><path
           style="fill:#000000;stroke-width:0.264583"
           d="m -2.4635448,141.46769 c -3.226861,-1.23877 -5.3007975,-4.4622 -5.3007975,-8.23881 0,-2.52593 0.7357427,-4.00958 3.1842366,-6.42114 2.255491,-2.22146 4.01711069,-4.73085 4.80881549,-6.85005 l 0.5930688,-1.5875 0.1613086,-36.380215 C 1.1232555,50.378086 1.2011832,45.193628 1.5776509,42.434773 3.7586378,26.451877 8.0085872,14.986566 13.971851,8.9982992 c 2.436053,-2.446269 4.991111,-4.153281 7.479747,-4.997156 l 2.137185,-0.724702 h 42.201043 42.201034 l 1.85209,0.586824 c 1.01864,0.322753 2.62599,1.036174 3.57187,1.585381 2.19991,1.277324 6.13337,5.1836958 7.80341,7.7496698 4.59512,7.060279 7.96857,18.268737 9.29327,30.877294 0.58991,5.614792 0.59373,16.73307 0.008,22.306115 -1.34084,12.75048 -4.67482,23.84617 -9.30094,30.95409 -1.67181,2.56868 -5.60399,6.473045 -7.80341,7.748185 -3.2258,1.87021 -4.41231,2.10879 -11.15326,2.24272 l -5.993896,0.11909 -0.1196,6.9174 c -0.112335,6.49654 -0.162477,7.06861 -0.824165,9.40269 -1.610193,5.67992 -4.011695,9.50195 -9.202822,14.64648 l -3.670978,3.63802 -41.733783,-0.0138 c -41.7327559,-0.0138 -41.7341608,-0.0138 -43.1801908,-0.56891 z m 83.2319578,-9.5376 c 2.682055,-2.7688 4.270692,-5.14874 5.515197,-8.26236 1.282941,-3.20977 1.447329,-4.94981 1.457402,-15.42667 l 0.0092,-9.599965 9.458852,0.0249 c 10.133176,0.0266 10.415906,-0.004 12.369266,-1.34885 6.37307,-4.38707 11.2376,-17.41355 12.59057,-33.715663 0.40211,-4.845015 0.17469,-16.369487 -0.40986,-20.769791 -1.71221,-12.888933 -5.61012,-23.475457 -10.35554,-28.12504 -0.7128,-0.69841 -2.0674,-1.65091 -3.01023,-2.116667 l -1.7142,-0.846863 H 65.927682 25.176283 l -1.512906,0.709099 c -2.956906,1.385901 -5.617242,4.516286 -7.860474,9.249333 -2.850494,6.014302 -4.539311,12.389037 -5.8782348,22.188428 -0.213556,1.562973 -0.359029,13.426461 -0.47693,38.893744 -0.15951,34.455095 -0.198676,36.747565 -0.655421,38.364595 -1.121614,3.97087 -2.9478763,7.06228 -6.0567623,10.2526 l -2.12709391,2.18281 H 39.887516 79.166572 Z"
           id="path304" /></g></g></g></svg>
